<?xml version="1.0" encoding="UTF-8"?>
<svg version="1.1" xmlns="http://www.w3.org/2000/svg" width="1290" height="550">
<path d="M0 0 C1.01126953 0.27287842 1.01126953 0.27287842 2.04296875 0.55126953 C27.02017355 7.52469572 49.68205917 23.43380644 71.83984375 36.40234375 C81.43942238 42.01678675 91.08135951 47.5580032 100.71777344 53.10888672 C103.98174327 54.98948106 107.24494189 56.87140546 110.5078125 58.75390625 C111.58023193 59.37257568 112.65265137 59.99124512 113.75756836 60.62866211 C115.91240819 61.87230696 118.06687043 63.11660631 120.22094727 64.36157227 C125.78985863 67.57876306 131.36657258 70.78134523 136.95703125 73.9609375 C152.07870222 82.57900845 166.37158669 90.8866117 179 103 C179.82113281 103.75796875 180.64226562 104.5159375 181.48828125 105.296875 C195.75600146 118.87672689 206.11438306 136.59345675 212.4375 155.1875 C212.66018555 155.8381543 212.88287109 156.48880859 213.11230469 157.15917969 C217.3184435 170.49050102 218.44726275 183.62702772 218.40405273 197.48754883 C218.40977301 199.17334948 218.41674358 200.85914627 218.42485046 202.54493713 C218.4426158 207.07410362 218.44164501 211.60307463 218.43590808 216.13226533 C218.43279141 219.93632861 218.43893605 223.74035566 218.44494683 227.54441375 C218.45893638 236.53102402 218.4574779 245.51753911 218.44604492 254.50415039 C218.43457387 263.72346034 218.44863518 272.94247902 218.4754414 282.16175061 C218.49771418 290.12495759 218.50420974 298.08807391 218.49836498 306.05130976 C218.49502118 310.78630508 218.4972363 315.52111392 218.51461601 320.25608253 C218.53026888 324.71413454 218.52593027 329.17176069 218.50731087 333.62979698 C218.50367482 335.24889937 218.50658415 336.86803464 218.51719666 338.48710632 C218.73153366 373.94365684 204.19980912 405.68860286 179.625 430.8125 C167.4888629 442.80323972 152.95991727 450.6901465 138.26318359 459.12646484 C135.03290081 460.98111022 131.80683744 462.84288205 128.58203125 464.70703125 C123.15133683 467.84546122 117.717327 470.97809453 112.28222656 474.10888672 C106.85340058 477.23680148 101.42680719 480.36858448 96 483.5 C93.83334417 484.75001879 91.6666775 486.00001878 89.5 487.25 C88.4275 487.86875 87.355 488.4875 86.25 489.125 C83 491 79.75 492.875 76.5 494.75 C74.8900415 495.67897095 74.8900415 495.67897095 73.24755859 496.62670898 C71.08937693 497.8716141 68.93085033 499.11592142 66.77197266 500.35961914 C61.22244851 503.55765711 55.68002211 506.76711171 50.1484375 509.99609375 C13.11933863 531.57761682 -23.54336002 545.3233689 -66.72973633 534.12060547 C-83.04356133 529.62845674 -97.16239932 522.16019496 -111.56982422 513.45849609 C-116.23105528 510.66100821 -120.92936768 507.9267128 -125.625 505.1875 C-126.64263428 504.59316162 -127.66026855 503.99882324 -128.70874023 503.38647461 C-135.64774595 499.34358817 -142.62417365 495.37218393 -149.625 491.4375 C-158.11029769 486.66849663 -166.51248652 481.77554451 -174.87817383 476.80004883 C-180.98541072 473.17321253 -187.13343452 469.62781971 -193.3125 466.125 C-201.36561135 461.54686663 -209.35635539 456.86966633 -217.3125 452.125 C-218.35639893 451.50641113 -219.40029785 450.88782227 -220.47583008 450.25048828 C-230.2554597 444.39016075 -238.66907855 437.77206089 -247 430 C-247.75410156 429.31164062 -248.50820312 428.62328125 -249.28515625 427.9140625 C-263.22296503 414.68912225 -273.28288968 396.91102505 -279.4375 378.8125 C-279.66018555 378.1618457 -279.88287109 377.51119141 -280.11230469 376.84082031 C-284.30646615 363.54746109 -285.44744948 350.44178027 -285.40405273 336.62011719 C-285.40977322 334.94579112 -285.41674386 333.27146893 -285.42485046 331.59715271 C-285.44261489 327.09890943 -285.44164502 322.60086298 -285.43590808 318.10259533 C-285.43279083 314.32347951 -285.43893678 310.54440014 -285.44494683 306.76528955 C-285.45893652 297.83617055 -285.45747819 288.90714735 -285.44604492 279.97802734 C-285.43457789 270.82122058 -285.44862837 261.66470722 -285.4754414 252.5079391 C-285.49772507 244.59652061 -285.50420722 236.68519336 -285.49836498 228.77374578 C-285.49502325 224.07057616 -285.49722182 219.36759429 -285.51461601 214.6644516 C-285.65828227 171.71357486 -278.17588732 135.45337222 -247.1875 103.75 C-234.84519255 91.56952059 -220.22256373 83.41614052 -205.24707031 74.85742188 C-202.02170702 73.01241707 -198.80280762 71.15664335 -195.5859375 69.296875 C-190.15422693 66.1566416 -184.71887128 63.02279502 -179.28222656 59.89111328 C-173.85340058 56.76319852 -168.42680719 53.63141552 -163 50.5 C-160.83334417 49.24998121 -158.6666775 47.99998122 -156.5 46.75 C-155.4275 46.13125 -154.355 45.5125 -153.25 44.875 C-150 43 -146.75 41.125 -143.5 39.25 C-142.42669434 38.63068604 -141.35338867 38.01137207 -140.24755859 37.37329102 C-138.08937693 36.1283859 -135.93085033 34.88407858 -133.77197266 33.64038086 C-128.22244851 30.44234289 -122.68002211 27.23288829 -117.1484375 24.00390625 C-99.44104865 13.68189013 -82.87968483 4.32861987 -63 -1 C-61.1128125 -1.51240234 -61.1128125 -1.51240234 -59.1875 -2.03515625 C-39.86979986 -6.43484431 -19.01189855 -5.21114427 0 0 Z M-102.87451172 50.13085938 C-108.13057519 53.2741512 -113.44097787 56.32230224 -118.75 59.375 C-119.8232251 59.99383057 -120.8964502 60.61266113 -122.00219727 61.25024414 C-130.6211229 66.21750582 -139.26098292 71.14769766 -147.90216064 76.07608032 C-156.97829175 81.25433587 -166.02350737 86.4832578 -175.03662109 91.77050781 C-180.28769001 94.84802524 -185.55550986 97.89106445 -190.8515625 100.890625 C-192.01427103 101.55180702 -193.17686925 102.21318306 -194.33935547 102.87475586 C-196.52987475 104.11929068 -198.72393246 105.35762935 -200.92236328 106.58813477 C-226.75127161 121.29837972 -244.79077951 142.49109757 -252.9375 171.1875 C-254.55414405 177.68580277 -255.38549413 183.98170059 -255.62060547 190.66625977 C-255.65792219 191.60169145 -255.69523891 192.53712313 -255.73368645 193.50090122 C-256.18940145 206.32775382 -256.1462042 219.16396799 -256.1343255 231.99712062 C-256.13174365 235.67488467 -256.13415493 239.35264658 -256.13571167 243.03041077 C-256.13751513 249.19158384 -256.13517387 255.3527448 -256.13037109 261.51391602 C-256.124915 268.59410248 -256.12670829 275.67426019 -256.1321975 282.75444597 C-256.13676082 288.89095679 -256.13736403 295.02745904 -256.13475883 301.16397101 C-256.13321583 304.80433057 -256.1329474 308.44467668 -256.13629532 312.08503532 C-256.13976754 316.14126113 -256.13493199 320.19743859 -256.12939453 324.25366211 C-256.13141876 325.42751968 -256.13344299 326.60137726 -256.13552856 327.81080627 C-256.06850408 354.54471738 -251.30983301 378.90956796 -234 400 C-233.56139648 400.53496094 -233.12279297 401.06992187 -232.67089844 401.62109375 C-219.67751418 417.1713327 -202.20351637 426.70709291 -184.8125 436.5625 C-182.34182403 437.96765477 -179.87211894 439.37451273 -177.40234375 440.78125 C-176.78224426 441.13417618 -176.16214478 441.48710236 -175.52325439 441.85072327 C-169.29361915 445.39784056 -163.0824978 448.97679664 -156.875 452.5625 C-155.27942261 453.48397827 -155.27942261 453.48397827 -153.65161133 454.42407227 C-151.50690413 455.66292223 -149.3622912 456.90193541 -147.21777344 458.14111328 C-143.98175371 460.01054076 -140.74494423 461.87859255 -137.5078125 463.74609375 C-136.43378174 464.36572998 -135.35975098 464.98536621 -134.25317383 465.6237793 C-132.08921981 466.87180831 -129.92499566 468.11936907 -127.76049805 469.36645508 C-122.2742261 472.5284488 -116.7940321 475.70023321 -111.32421875 478.890625 C-101.15398812 484.81301255 -90.96289745 490.67658127 -80.5625 496.1875 C-79.75321045 496.62094727 -78.9439209 497.05439453 -78.11010742 497.50097656 C-56.41506626 508.82169227 -30.63111178 511.87047564 -7 505 C7.62549697 500.34242316 21.04410752 492.71819925 34.16015625 484.87890625 C39.84307488 481.48445938 45.57709044 478.17974538 51.3125 474.875 C52.41239258 474.24078125 53.51228516 473.6065625 54.64550781 472.953125 C63.38347856 467.91981273 72.1408042 462.92083644 80.90023804 457.92501831 C89.97786902 452.74590606 99.02543282 447.51751408 108.03881836 442.22729492 C113.27492564 439.15728025 118.52947237 436.12631123 123.81640625 433.14453125 C152.05854192 417.17533384 174.97880813 398.65832697 184.875 366.625 C189.97360241 347.97239746 189.30143527 328.6881749 189.26865101 309.52089047 C189.2635119 305.56470054 189.26830414 301.60851889 189.27142334 297.65232849 C189.27504075 291.01323759 189.27032332 284.37419149 189.26074219 277.73510742 C189.24986648 270.11201367 189.25338586 262.48902702 189.264395 254.86593586 C189.27353729 248.26574602 189.27471944 241.665588 189.26951766 235.06539387 C189.26643517 231.14761318 189.26588382 227.22988245 189.27259064 223.31210518 C189.31935736 191.54304006 189.0795201 159.35056011 167 134 C165.98486328 132.80697266 165.98486328 132.80697266 164.94921875 131.58984375 C152.53719552 117.37711249 137.75935677 108.68486105 121.44067383 99.61206055 C115.45477049 96.27996319 109.53770304 92.83504742 103.625 89.375 C91.88592197 82.50829049 80.11091548 75.70545072 68.32617188 68.91748047 C64.92946315 66.95933673 61.53477542 64.99773073 58.140625 63.03515625 C-0.78296287 28.96975894 -40.67938636 12.67454866 -102.87451172 50.13085938 Z " fill="#FFFFFF" transform="translate(289,8)"/>
<path d="M0 0 C0 30.36 0 60.72 0 92 C-9.01573521 95.38090071 -9.01573521 95.38090071 -12.140625 96.16796875 C-12.81867188 96.33876953 -13.49671875 96.50957031 -14.1953125 96.68554688 C-14.87335938 96.85119141 -15.55140625 97.01683594 -16.25 97.1875 C-17.29027344 97.45336914 -17.29027344 97.45336914 -18.3515625 97.72460938 C-21.70592989 98.55677523 -24.51842512 99 -28 99 C-28.6084375 97.86949219 -29.216875 96.73898438 -29.84375 95.57421875 C-37.84578713 80.81701331 -46.37683875 66.3995894 -55 52 C-59.48045222 52.77699283 -62.71359266 54.31953064 -66.6875 56.5625 C-72.79476861 60 -72.79476861 60 -75 60 C-72.98997943 68.56417114 -69.15330315 75.71288699 -64.8125 83.3125 C-64.17763672 84.44623047 -63.54277344 85.57996094 -62.88867188 86.74804688 C-60.25417525 91.42301308 -57.62427056 96.07950196 -54.69287109 100.57568359 C-54.1302784 101.44836128 -54.1302784 101.44836128 -53.55632019 102.33866882 C-52.50934702 103.95040577 -51.44404639 105.55019421 -50.37768555 107.14916992 C-49 110 -49 110 -49.1887207 112.76806641 C-50.17224217 115.47386034 -51.23273753 116.43756924 -53.5 118.1875 C-58.54449781 122.31813951 -62.73131163 127.08903213 -67 132 C-70.54434427 130.65544302 -73.80799193 129.08771656 -77.11328125 127.234375 C-78.10166992 126.68120605 -79.09005859 126.12803711 -80.10839844 125.55810547 C-81.16575195 124.96143066 -82.22310547 124.36475586 -83.3125 123.75 C-84.41754883 123.12883301 -85.52259766 122.50766602 -86.66113281 121.86767578 C-95.22709322 117.0369999 -103.73504901 112.11001444 -112.2175293 107.13427734 C-119.8500802 102.65808252 -127.52230996 98.25567436 -135.22753906 93.90576172 C-139.60607377 91.42166718 -143.85466874 88.85746135 -148 86 C-143.77129776 74.37106885 -134.27476998 65.93393332 -125.58374023 57.53491211 C-122.78606705 54.82349368 -120.02947026 52.07286713 -117.33203125 49.26171875 C-88.62743478 19.52405197 -41.17924713 0 0 0 Z " fill="#FFFFFF" transform="translate(243,82)"/>
<path d="M0 0 C3.80256648 3.56668377 5.57733119 7.10587267 7.375 11.9375 C7.82117676 13.12025513 7.82117676 13.12025513 8.27636719 14.3269043 C22.70921624 53.48808586 26.49480427 101.90115304 13 142 C12.7417041 142.76957031 12.4834082 143.53914062 12.21728516 144.33203125 C11.35271161 146.87483646 10.46404248 149.40757687 9.5625 151.9375 C9.28631836 152.71923584 9.01013672 153.50097168 8.72558594 154.30639648 C6.74552017 159.64652195 4.18968706 164.28582424 1 169 C-2.98631909 167.75898644 -6.57175643 166.30491695 -10.23828125 164.3125 C-11.21458496 163.78374268 -12.19088867 163.25498535 -13.19677734 162.71020508 C-14.22496582 162.1458374 -15.2531543 161.58146973 -16.3125 161 C-17.38193848 160.41694092 -18.45137695 159.83388184 -19.55322266 159.2331543 C-26.40918688 155.47610236 -33.18721949 151.60889835 -39.90087891 147.60400391 C-45.68315048 144.15927616 -51.54991536 140.88244575 -57.44238281 137.63061523 C-64.3362376 133.82472777 -71.17511405 129.92814979 -78 126 C-78 119 -78 119 -72 97 C-53.19 97 -34.38 97 -15 97 C-15 89.08 -15 81.16 -15 73 C-33.81 73 -52.62 73 -72 73 C-78 51 -78 51 -78 45 C-76.46630859 43.35424805 -76.46630859 43.35424805 -74.2734375 42.07421875 C-73.44811523 41.57841309 -72.62279297 41.08260742 -71.77246094 40.57177734 C-70.85754883 40.05309082 -69.94263672 39.5344043 -69 39 C-67.5773584 38.15816162 -67.5773584 38.15816162 -66.12597656 37.29931641 C-62.97345266 35.4441421 -59.80215781 33.62513633 -56.625 31.8125 C-55.46418222 31.14760056 -54.30354008 30.48239437 -53.14306641 29.81689453 C-50.82959379 28.49018314 -48.51557163 27.16445119 -46.20117188 25.83935547 C-43.43435365 24.24957447 -40.6752816 22.64800939 -37.921875 21.03515625 C-25.44013875 13.72723083 -12.74866902 6.83017022 0 0 Z " fill="#FFFFFF" transform="translate(428,190)"/>
<path d="M0 0 C0.69738281 0.40347656 1.39476563 0.80695313 2.11328125 1.22265625 C8.04611917 4.63458135 13.99727033 8.00659563 19.9921875 11.30859375 C31.92462106 17.88328209 43.78212488 24.54972705 55.5 31.5 C56.59014404 32.14582031 57.68028809 32.79164063 58.8034668 33.45703125 C65.61500136 37.51715768 72.33465167 41.70425912 79 46 C78.50763455 56.17555262 75.89655135 63.57241513 73 74 C54.19 74 35.38 74 16 74 C16 81.92 16 89.84 16 98 C34.81 98 53.62 98 73 98 C79 120 79 120 79 126 C77.47949219 127.64794922 77.47949219 127.64794922 75.296875 128.9296875 C74.47123047 129.4256543 73.64558594 129.92162109 72.79492188 130.43261719 C71.87259766 130.94985352 70.95027344 131.46708984 70 132 C69.03126953 132.5559082 68.06253906 133.11181641 67.06445312 133.68457031 C63.80835946 135.52723725 60.53233781 137.32952917 57.25 139.125 C54.84123412 140.45092844 52.43421616 141.7800132 50.02734375 143.109375 C49.42947556 143.4392038 48.83160736 143.76903259 48.21562195 144.1088562 C42.71800006 147.14582565 37.25952112 150.24842212 31.8125 153.375 C30.96913086 153.85839844 30.12576172 154.34179688 29.25683594 154.83984375 C27.62506195 155.77521478 25.99338543 156.71075588 24.36181641 157.64648438 C20.57918907 159.81424186 16.79272285 161.97495431 13 164.125 C12.35909424 164.49157715 11.71818848 164.8581543 11.05786133 165.23583984 C7.78065315 167.08842505 4.53513904 168.70110422 1 170 C-12.85186783 157.66410913 -17.26679934 127.5716508 -19 110 C-19.13831067 107.22569993 -19.16328819 104.45712588 -19.16796875 101.6796875 C-19.17220352 100.90684921 -19.17643829 100.13401093 -19.18080139 99.3377533 C-19.19063322 96.85011273 -19.19073084 94.36265646 -19.1875 91.875 C-19.18689575 91.0244101 -19.1862915 90.17382019 -19.18566895 89.29745483 C-19.12450336 57.6244995 -15.3625045 28.19272805 0 0 Z " fill="#FFFFFF" transform="translate(82,189)"/>
<path d="M0 0 C2.05513077 -0.02114905 4.11032544 -0.03613802 6.16552734 -0.04858398 C7.88224136 -0.06211159 7.88224136 -0.06211159 9.63363647 -0.07591248 C14.45154622 0.03273279 18.94203491 0.85615846 23.625 1.9375 C24.58865479 2.15494873 25.55230957 2.37239746 26.54516602 2.59643555 C44.71799133 6.89499375 62.74959353 12.69319041 79 22 C79.63292969 22.35562012 80.26585937 22.71124023 80.91796875 23.07763672 C89.7789553 28.08515531 98.03711817 33.64031171 106 40 C106.96679688 40.76183594 107.93359375 41.52367187 108.9296875 42.30859375 C116.14498316 48.19282342 122.81625256 54.58249107 129.4375 61.125 C130.29021484 61.9600708 131.14292969 62.7951416 132.02148438 63.65551758 C144.48897593 76.13653936 144.48897593 76.13653936 145.33642578 82.54345703 C144.72504568 87.00768534 141.35047574 89.26078641 138 92 C135.32513256 93.85820139 132.54435696 95.43961472 129.6875 97 C127.99713748 97.95136403 126.30704849 98.90321416 124.6171875 99.85546875 C123.71323242 100.35997559 122.80927734 100.86448242 121.87792969 101.38427734 C116.66203136 104.31257859 111.49111488 107.31893843 106.3125 110.3125 C105.22598145 110.93705078 104.13946289 111.56160156 103.02001953 112.20507812 C97.35707265 115.46296071 91.71706472 118.75372373 86.109375 122.10546875 C85.00940186 122.75926514 83.90942871 123.41306152 82.77612305 124.08666992 C80.67094297 125.34005412 78.57062621 126.60165152 76.47583008 127.87231445 C75.53634521 128.43007568 74.59686035 128.98783691 73.62890625 129.5625 C72.80463135 130.05878906 71.98035645 130.55507812 71.13110352 131.06640625 C69 132 69 132 66 131 C66 130.34 66 129.68 66 129 C65.01 128.67 64.02 128.34 63 128 C63 127.34 63 126.68 63 126 C62.34 126 61.68 126 61 126 C59.31267723 124.01739574 57.64633943 122.0167658 56 120 C55.01 119.505 55.01 119.505 54 119 C54 118.34 54 117.68 54 117 C53.34 117 52.68 117 52 117 C52 116.34 52 115.68 52 115 C51.01 114.67 50.02 114.34 49 114 C49.58185573 109.46494796 51.47509198 106.00630802 53.75 102.125 C54.56009673 100.71365696 55.36997892 99.30219076 56.1796875 97.890625 C56.62538086 97.11912109 57.07107422 96.34761719 57.53027344 95.55273438 C60.3384482 90.67528001 63.10364948 85.77343588 65.875 80.875 C66.43413086 79.89160645 66.99326172 78.90821289 67.56933594 77.89501953 C72.76072075 69.89284363 72.76072075 69.89284363 75 61 C72.26070622 59.45925893 69.50712161 57.94607142 66.75 56.4375 C65.97269531 55.99986328 65.19539063 55.56222656 64.39453125 55.11132812 C63.26337891 54.49741211 63.26337891 54.49741211 62.109375 53.87109375 C61.07248535 53.29766235 61.07248535 53.29766235 60.01464844 52.71264648 C57.52710178 51.83272056 56.40792717 51.95072863 54 53 C52.36448163 55.50228185 50.98602582 57.91491692 49.625 60.5625 C48.7540448 62.19287439 47.88017943 63.82169642 47.00390625 65.44921875 C46.29258545 66.77638916 46.29258545 66.77638916 45.56689453 68.13037109 C42.66878633 73.43800022 39.61213123 78.65344592 36.5625 83.875 C35.95937988 84.91470947 35.35625977 85.95441895 34.73486328 87.02563477 C33.87803955 88.49407837 33.87803955 88.49407837 33.00390625 89.9921875 C32.49674072 90.86214355 31.9895752 91.73209961 31.46704102 92.62841797 C30.08777919 94.85809835 28.60882392 96.9317259 27 99 C3.76595745 95.76595745 3.76595745 95.76595745 0 92 C-0.09522418 89.13908182 -0.12553326 86.30236379 -0.11352539 83.44116211 C-0.11367142 82.54368759 -0.11381744 81.64621307 -0.1139679 80.72154236 C-0.11326842 77.74011866 -0.10547441 74.7587566 -0.09765625 71.77734375 C-0.09579219 69.71611058 -0.09436823 67.65487696 -0.09336853 65.59364319 C-0.08954237 60.1569599 -0.07971126 54.72030314 -0.06866455 49.28363037 C-0.05845253 43.74052286 -0.05387136 38.19741108 -0.04882812 32.65429688 C-0.03808908 21.76951957 -0.02101149 10.88476198 0 0 Z " fill="#FFFFFF" transform="translate(268,82)"/>
<path d="M0 0 C3.88557505 1.17150353 7.16423456 3.0400525 10.67578125 5.05078125 C11.45203857 5.4885791 12.2282959 5.92637695 13.02807617 6.37744141 C20.63628146 10.68813646 28.18440566 15.10453861 35.72753906 19.52783203 C40.74001769 22.46631958 45.76147586 25.38503697 50.81640625 28.25 C51.76153076 28.7857666 52.70665527 29.3215332 53.68041992 29.87353516 C55.45212395 30.87526874 57.22560167 31.87387479 59.0012207 32.86865234 C73.64609412 41.15175859 73.64609412 41.15175859 75.86328125 45.86328125 C75.55122977 51.22723602 74.43744337 54.10320062 70.9375 58.14453125 C70.12200684 59.088125 69.30651367 60.03171875 68.46630859 61.00390625 C64.30971123 65.56984775 60.05575758 70.01124154 55.67578125 74.36328125 C54.75522949 75.27891846 53.83467773 76.19455566 52.88623047 77.13793945 C45.92033085 83.98508139 38.81971756 90.21233574 30.86328125 95.86328125 C30.32203613 96.26482422 29.78079102 96.66636719 29.22314453 97.08007812 C4.84054923 115.14760265 -23.80775105 123.86417422 -53.13671875 129.86328125 C-54.03680664 130.05301514 -54.93689453 130.24274902 -55.86425781 130.43823242 C-60.25380742 131.0083761 -64.710297 130.86328125 -69.13671875 130.86328125 C-69.13671875 100.50328125 -69.13671875 70.14328125 -69.13671875 38.86328125 C-60.12098354 35.48238054 -60.12098354 35.48238054 -56.99609375 34.6953125 C-56.31804687 34.52451172 -55.64 34.35371094 -54.94140625 34.17773438 C-54.26335937 34.01208984 -53.5853125 33.84644531 -52.88671875 33.67578125 C-52.19320313 33.49853516 -51.4996875 33.32128906 -50.78515625 33.13867188 C-47.43078886 32.30650602 -44.61829363 31.86328125 -41.13671875 31.86328125 C-40.81622559 32.43433594 -40.49573242 33.00539063 -40.16552734 33.59375 C-36.81312413 39.56095658 -33.44357498 45.51823132 -30.0625 51.46923828 C-28.77011064 53.74697622 -27.48108911 56.02662812 -26.1953125 58.30810547 C-24.31189787 61.64545912 -22.41357621 64.97391104 -20.51171875 68.30078125 C-19.92052246 69.35458984 -19.32932617 70.40839844 -18.72021484 71.49414062 C-18.16414551 72.46029297 -17.60807617 73.42644531 -17.03515625 74.421875 C-16.54708496 75.28095459 -16.05901367 76.14003418 -15.55615234 77.02514648 C-14.85353271 77.93502319 -14.85353271 77.93502319 -14.13671875 78.86328125 C-10.93758294 78.86328125 -9.86989653 78.38049027 -7.125 76.89453125 C-6.36767578 76.48847656 -5.61035156 76.08242188 -4.83007812 75.6640625 C-4.04439453 75.23480469 -3.25871094 74.80554688 -2.44921875 74.36328125 C-1.25329102 73.71939453 -1.25329102 73.71939453 -0.03320312 73.0625 C1.93535508 72.00160037 3.90061731 70.93503448 5.86328125 69.86328125 C5.2609369 64.85691097 3.02499125 60.92484101 0.67578125 56.55078125 C0.24595947 55.73988037 -0.1838623 54.92897949 -0.62670898 54.09350586 C-5.04348515 45.85685702 -9.78065622 37.80624318 -14.5769043 29.78588867 C-15.15480713 28.81240479 -15.73270996 27.8389209 -16.328125 26.8359375 C-16.84576416 25.97234619 -17.36340332 25.10875488 -17.89672852 24.21899414 C-19.04742279 22.03292423 -19.84349941 20.31321891 -20.13671875 17.86328125 C-18.44140625 15.6796875 -18.44140625 15.6796875 -16.01171875 13.42578125 C-15.18027344 12.63945312 -14.34882813 11.853125 -13.4921875 11.04296875 C-12.32623047 9.96402344 -12.32623047 9.96402344 -11.13671875 8.86328125 C-10.20859375 7.93515625 -9.28046875 7.00703125 -8.32421875 6.05078125 C-7.60234375 5.32890625 -6.88046875 4.60703125 -6.13671875 3.86328125 C-5.47671875 3.07953125 -4.81671875 2.29578125 -4.13671875 1.48828125 C-2.13671875 -0.13671875 -2.13671875 -0.13671875 0 0 Z " fill="#FFFFFF" transform="translate(337.13671875,337.13671875)"/>
<path d="M0 0 C3.25696671 2.44661915 6.01769838 5.41471994 8.875 8.3125 C9.67164063 9.08529297 10.46828125 9.85808594 11.2890625 10.65429688 C12.03671875 11.40388672 12.784375 12.15347656 13.5546875 12.92578125 C14.58311768 13.95312378 14.58311768 13.95312378 15.63232422 15.0012207 C17 17 17 17 16.92041016 18.88256836 C15.69810384 21.69452133 14.25509197 24.29833259 12.71875 26.953125 C12.38895645 27.52629456 12.0591629 28.09946411 11.71937561 28.69000244 C11.01459631 29.9136205 10.3076277 31.13597974 9.59866333 32.35717773 C8.4959553 34.25696837 7.39933376 36.16014773 6.30444336 38.06445312 C4.86365621 40.56952036 3.42099782 43.0734882 1.97607422 45.57617188 C-0.50655975 49.87768642 -2.98243716 54.1826924 -5.4375 58.5 C-5.79585938 59.12036133 -6.15421875 59.74072266 -6.5234375 60.37988281 C-8.12858798 63.20823531 -9.43927751 65.77782006 -10 69 C-9.00419922 69.36738281 -9.00419922 69.36738281 -7.98828125 69.7421875 C-4.2561603 71.31309331 -0.74550093 73.19789136 2.8125 75.125 C3.50537109 75.49753906 4.19824219 75.87007813 4.91210938 76.25390625 C6.60934836 77.16690377 8.30485138 78.08312716 10 79 C16.03938475 69.56580581 21.5028688 59.83773243 26.89892578 50.02368164 C28.03721658 47.9668405 29.18933435 45.91757887 30.35644531 43.87695312 C31.42059674 42.01421391 32.45359541 40.13318315 33.44824219 38.23242188 C36.77110159 32.38254276 36.77110159 32.38254276 40.04150391 31.36450195 C45.66028466 31.16544988 51.16171515 32.83336308 56.5 34.4375 C57.30953125 34.66759766 58.1190625 34.89769531 58.953125 35.13476562 C64.83803129 36.83803129 64.83803129 36.83803129 66 38 C66.09522418 40.86091818 66.12553326 43.69763621 66.11352539 46.55883789 C66.11367142 47.45631241 66.11381744 48.35378693 66.1139679 49.27845764 C66.11326842 52.25988134 66.10547441 55.2412434 66.09765625 58.22265625 C66.09579219 60.28388942 66.09436823 62.34512304 66.09336853 64.40635681 C66.08954237 69.8430401 66.07971126 75.27969686 66.06866455 80.71636963 C66.05845253 86.25947714 66.05387136 91.80258892 66.04882812 97.34570312 C66.03808908 108.23048043 66.02101149 119.11523802 66 130 C63.28661667 129.85682902 60.57359515 129.70921963 57.8605957 129.55908203 C57.09811775 129.5193074 56.3356398 129.47953278 55.55005646 129.43855286 C49.61645494 129.10499924 43.96546208 128.29142036 38.1875 126.875 C36.81029785 126.54786011 36.81029785 126.54786011 35.40527344 126.21411133 C5.18202711 118.75679746 -24.12045608 105.13083857 -47.00390625 83.78515625 C-48.87859345 81.95116302 -48.87859345 81.95116302 -51 81 C-51 80.34 -51 79.68 -51 79 C-51.87942261 78.60627197 -51.87942261 78.60627197 -52.77661133 78.20458984 C-56.69557991 76.08136694 -59.56952189 72.76833636 -62.6875 69.625 C-63.39704834 68.90981201 -64.10659668 68.19462402 -64.83764648 67.45776367 C-79.80497935 52.14533307 -79.80497935 52.14533307 -80.15234375 46.54296875 C-77.30671493 40.26329295 -70.35281662 36.77137332 -64.5625 33.5 C-63.05852001 32.6329404 -61.55461839 31.76574483 -60.05078125 30.8984375 C-59.24205566 30.4353418 -58.43333008 29.97224609 -57.60009766 29.49511719 C-53.82001071 27.32147846 -50.06022026 25.1135438 -46.29785156 22.90942383 C-36.46234444 17.15103537 -26.5932637 11.45378973 -16.68652344 5.81884766 C-15.87860352 5.35913574 -15.07068359 4.89942383 -14.23828125 4.42578125 C-13.49143066 4.00506348 -12.74458008 3.5843457 -11.97509766 3.15087891 C-10.351344 2.20472628 -8.78157869 1.16652421 -7.23046875 0.10546875 C-4.30028825 -1.34679234 -3.09885545 -0.94276662 0 0 Z " fill="#FFFFFF" transform="translate(177,338)"/>
<path d="M0 0 C13.22011565 9.97554458 20.7282713 23.45755362 23.71484375 39.66015625 C25.81763047 55.05742102 22.7462822 70.99762771 14.1875 84.12109375 C3.65455357 97.98023379 -11.37940602 107.52188245 -28.8125 110.12109375 C-47.10670082 111.11202963 -63.92259948 108.1631742 -78.25 95.74609375 C-91.42249464 82.96165951 -98.92819107 67.78586369 -99.25 49.24609375 C-99.11900875 32.20085773 -92.55823307 16.85099189 -80.67578125 4.81640625 C-57.05263911 -17.42093082 -26.27788278 -17.55508558 0 0 Z M-62.95703125 28.55078125 C-67.89564294 35.22570485 -71.54861569 42.51501513 -71.16015625 51.02734375 C-69.61508006 60.33252172 -64.27949776 69.68134309 -56.875 75.49609375 C-49.34420353 80.63525731 -41.90282597 82.94002792 -32.8203125 81.71875 C-23.05841239 79.61981728 -15.80184592 75.48377033 -10.09375 67.20703125 C-5.73273462 60.10708549 -2.81266819 53.64823076 -3.8125 45.12109375 C-5.97134797 36.42067634 -9.949679 27.56135816 -17.4296875 22.26953125 C-20.1759067 20.7252584 -22.92591448 19.38137533 -25.8125 18.12109375 C-26.56273437 17.78207031 -27.31296875 17.44304687 -28.0859375 17.09375 C-41.14008245 11.66702691 -54.15005156 18.57274598 -62.95703125 28.55078125 Z " fill="#FFFFFF" transform="translate(292.8125,225.87890625)"/>
<path d="M0 0 C46.94618834 0 46.94618834 0 59.92578125 11.7421875 C69.46330197 21.58605257 71.92393868 35.0690349 72.3125 48.3125 C72.04427388 61.50291395 69.22291688 74.68807266 60.5 84.9375 C59.675 85.618125 58.85 86.29875 58 87 C56.6078125 88.2684375 56.6078125 88.2684375 55.1875 89.5625 C39.53617418 102.29171128 19.32170358 98 0 98 C0 65.66 0 33.32 0 0 Z M14 11 C14 36.08 14 61.16 14 87 C33.32137997 87.61099118 33.32137997 87.61099118 48.55859375 78.57421875 C57.42361184 69.31126968 58.37997165 56.72911207 58.21875 44.5703125 C57.88580702 34.43636061 54.66722263 25.90953771 47.9375 18.3125 C38.10820068 9.1632151 27.40813002 11 14 11 Z " fill="#FFFFFF" transform="translate(813,226)"/>
<path d="M0 0 C49.66084559 0 49.66084559 0 58.27734375 7.21875 C63.79137107 12.92032927 65.81118502 19.02512668 66.12109375 26.8828125 C65.77416341 35.81347103 63.60519822 42.28581102 57.62109375 48.96484375 C53.751085 51.96972387 49.42385625 53.92922484 45 56 C54.95572976 74.05272641 54.95572976 74.05272641 65.50952148 91.75805664 C68 95.79691356 68 95.79691356 68 98 C63.05 98 58.1 98 53 98 C52.42894531 96.95585937 51.85789062 95.91171875 51.26953125 94.8359375 C50.01277503 92.54231121 48.74529519 90.2567065 47.45336914 87.98266602 C44.83008726 83.36359379 42.3572366 78.72178302 40.0390625 73.94140625 C39.00618884 71.93959795 37.97235031 69.93828717 36.9375 67.9375 C36.28068237 66.4831958 36.28068237 66.4831958 35.6105957 64.99951172 C34.04168407 61.7708344 34.04168407 61.7708344 30 58 C24.39 57.67 18.78 57.34 13 57 C13 70.53 13 84.06 13 98 C8.71 98 4.42 98 0 98 C0 65.66 0 33.32 0 0 Z M13 10 C13 21.88 13 33.76 13 46 C18.4140625 46.0928125 18.4140625 46.0928125 23.9375 46.1875 C25.05632568 46.21481201 26.17515137 46.24212402 27.32788086 46.27026367 C34.4974987 46.32920246 41.39975974 45.9284563 47.15625 41.24609375 C47.82140625 40.35083984 47.82140625 40.35083984 48.5 39.4375 C48.9640625 38.83808594 49.428125 38.23867188 49.90625 37.62109375 C53.09719821 32.89165265 52.39007123 27.51878559 52 22 C50.66196609 17.83722785 48.87319388 15.06923357 45.02734375 12.8125 C35.06417958 8.81955559 23.32399131 10 13 10 Z " fill="#FFFFFF" transform="translate(1219,226)"/>
<path d="M0 0 C19.14 0 38.28 0 58 0 C58 3.63 58 7.26 58 11 C43.48 11 28.96 11 14 11 C14 20.9 14 30.8 14 41 C26.21 41 38.42 41 51 41 C51 44.63 51 48.26 51 52 C38.79 52 26.58 52 14 52 C14 63.55 14 75.1 14 87 C28.85 87 43.7 87 59 87 C59 90.63 59 94.26 59 98 C39.53 98 20.06 98 0 98 C0 65.66 0 33.32 0 0 Z " fill="#FFFFFF" transform="translate(1140,226)"/>
<path d="M0 0 C1.39456452 0.00667256 2.78911118 0.01863093 4.18359375 0.03515625 C5.2499707 0.04192383 5.2499707 0.04192383 6.33789062 0.04882812 C8.09899388 0.06064761 9.86005411 0.07858362 11.62109375 0.09765625 C15.18581308 10.66034148 18.75022947 21.22312889 22.31427288 31.78604221 C23.96970527 36.69229007 25.62523694 41.59850438 27.28100586 46.50463867 C28.88278386 51.25080754 30.48428755 55.9970689 32.08561134 60.74339104 C32.69263005 62.54244126 33.29974296 64.34145971 33.90695763 66.1404438 C37.50000189 76.7857281 41.07514705 87.4365831 44.62109375 98.09765625 C39.67109375 98.09765625 34.72109375 98.09765625 29.62109375 98.09765625 C26.65109375 88.52765625 23.68109375 78.95765625 20.62109375 69.09765625 C3.29609375 68.60265625 3.29609375 68.60265625 -14.37890625 68.09765625 C-14.70890625 70.40765625 -15.03890625 72.71765625 -15.37890625 75.09765625 C-15.8638348 76.93085249 -16.39381217 78.75285188 -16.97265625 80.55859375 C-17.28074219 81.52410156 -17.58882812 82.48960937 -17.90625 83.484375 C-18.22722656 84.47050781 -18.54820312 85.45664062 -18.87890625 86.47265625 C-19.36037109 87.98666016 -19.36037109 87.98666016 -19.8515625 89.53125 C-22.24111793 96.95986793 -22.24111793 96.95986793 -23.37890625 98.09765625 C-25.56530078 98.17024571 -27.75391014 98.18139408 -29.94140625 98.16015625 C-31.13894531 98.15113281 -32.33648438 98.14210938 -33.5703125 98.1328125 C-34.96056641 98.11541016 -34.96056641 98.11541016 -36.37890625 98.09765625 C-35.17834093 92.21070651 -33.66547018 86.57167545 -31.68359375 80.90234375 C-31.41883743 80.13173615 -31.15408112 79.36112854 -30.88130188 78.56716919 C-30.00999346 76.03409216 -29.13199089 73.50339143 -28.25390625 70.97265625 C-27.32098615 68.26755938 -26.38966294 65.56191578 -25.45835876 62.85626221 C-24.80274647 60.95204801 -24.14653612 59.04803963 -23.48976135 57.14422607 C-20.94554883 49.76443877 -18.43216026 42.37450396 -15.9296875 34.98046875 C-15.19483106 32.81135836 -14.45996784 30.64225026 -13.72509766 28.47314453 C-12.64680027 25.28982812 -11.56930761 22.10625097 -10.49432373 18.92181396 C-9.49367077 15.95868484 -8.48941041 12.99680127 -7.484375 10.03515625 C-7.18396805 9.14232941 -6.8835611 8.24950256 -6.5740509 7.32962036 C-6.29848862 6.51959564 -6.02292633 5.70957092 -5.73901367 4.875 C-5.49922287 4.16593506 -5.25943207 3.45687012 -5.01237488 2.72631836 C-3.83858539 -0.29152086 -3.54360161 0.10241623 0 0 Z M2.62109375 12.09765625 C1.2486006 16.71908899 -0.1204604 21.34152065 -1.48657227 25.96484375 C-1.95018577 27.53216894 -2.41467933 29.09923413 -2.88012695 30.66601562 C-3.55530975 32.93939753 -4.22714723 35.2137473 -4.8984375 37.48828125 C-5.10169144 38.17005432 -5.30494537 38.85182739 -5.51435852 39.55426025 C-7.32371802 45.70485247 -8.81914023 51.85859216 -10.37890625 58.09765625 C-1.13890625 58.09765625 8.10109375 58.09765625 17.62109375 58.09765625 C15.20395647 48.35691882 15.20395647 48.35691882 12.4296875 38.7578125 C12.04232422 37.51064453 11.65496094 36.26347656 11.25585938 34.97851562 C11.05903564 34.35098389 10.86221191 33.72345215 10.65942383 33.0769043 C10.05200159 31.13912617 9.45046537 29.19958868 8.84960938 27.25976562 C6.46597836 19.59693278 6.46597836 19.59693278 3.62109375 12.09765625 C3.29109375 12.09765625 2.96109375 12.09765625 2.62109375 12.09765625 Z " fill="#FFFFFF" transform="translate(1008.37890625,225.90234375)"/>
<path d="M0 0 C1.2684375 0.9590625 1.2684375 0.9590625 2.5625 1.9375 C3.34625 2.515 4.13 3.0925 4.9375 3.6875 C5.47375 4.1 6.01 4.5125 6.5625 4.9375 C6.05727778 9.31609255 3.38422778 11.75401224 0.5625 14.9375 C-0.7575 14.2775 -2.0775 13.6175 -3.4375 12.9375 C-3.4375 12.2775 -3.4375 11.6175 -3.4375 10.9375 C-4.324375 10.64875 -5.21125 10.36 -6.125 10.0625 C-9.4375 8.9375 -9.4375 8.9375 -11.71875 7.890625 C-18.30705246 5.58093276 -26.82762096 5.72344628 -33.1875 8.6875 C-36.36624248 10.88816787 -37.13843642 11.51496712 -38.4375 14.9375 C-38.75087208 17.16134795 -38.75087208 17.16134795 -38.6875 19.4375 C-38.69265625 20.1903125 -38.6978125 20.943125 -38.703125 21.71875 C-38.39552245 24.28813599 -37.79470914 25.73157431 -36.4375 27.9375 C-29.19451212 33.54933763 -20.26393412 36.70941066 -11.828125 40.06054688 C-2.28974114 44.02215564 5.00730117 49.45564836 9.5625 58.9375 C12.22115446 67.64162989 9.99654205 75.33986501 5.875 83.125 C0.08329562 90.16896478 -7.45012066 94.45262863 -16.4375 95.9375 C-32.83995744 97.21534151 -44.76224348 92.7913539 -57.4375 82.9375 C-56.84466379 79.54557637 -55.67006811 77.7267243 -53.375 75.1875 C-52.82714844 74.57390625 -52.27929688 73.9603125 -51.71484375 73.328125 C-51.29332031 72.86921875 -50.87179687 72.4103125 -50.4375 71.9375 C-49.99921875 72.31261719 -49.5609375 72.68773437 -49.109375 73.07421875 C-40.1570307 80.29795998 -31.29534158 83.75824452 -19.72265625 83.296875 C-15.4423697 82.82863914 -11.14080386 82.2563912 -7.4375 79.9375 C-5.24935686 76.34894524 -4.26224056 72.80722543 -4.125 68.625 C-4.08761719 67.88636719 -4.05023437 67.14773438 -4.01171875 66.38671875 C-4.64399686 62.74966946 -6.08685102 60.77474829 -8.4375 57.9375 C-10.82892713 56.27781776 -13.35407505 55.07639463 -16 53.875 C-17.0674646 53.3658606 -17.0674646 53.3658606 -18.15649414 52.84643555 C-20.24187192 51.85751049 -22.3364183 50.89253714 -24.4375 49.9375 C-26.01144531 49.22207031 -26.01144531 49.22207031 -27.6171875 48.4921875 C-28.52726563 48.08226562 -29.43734375 47.67234375 -30.375 47.25 C-47.32352613 39.59008053 -47.32352613 39.59008053 -51.46875 30.734375 C-54.35277774 22.88341059 -53.93048626 16.41396503 -50.8828125 8.65625 C-47.00560861 1.36291511 -40.27227175 -3.00649318 -32.5234375 -5.4375 C-20.98008062 -7.77539506 -9.95342918 -6.41278149 0 0 Z " fill="#FFFFFF" transform="translate(627.4375,230.0625)"/>
<path d="M0 0 C3.22549939 2.31796641 5.39393674 4.16903011 7.6171875 7.50390625 C5.3071875 10.14390625 2.9971875 12.78390625 0.6171875 15.50390625 C-1.53125 14.00651042 -3.6796875 12.50911458 -5.828125 11.01171875 C-10.9370161 7.99637935 -15.49254571 7.21078213 -21.3828125 7.19140625 C-22.5584375 7.17464844 -23.7340625 7.15789062 -24.9453125 7.140625 C-29.43767385 7.61538591 -32.72300557 9.13027293 -36.1953125 12.00390625 C-38.95389206 15.4884278 -38.74182365 19.26757469 -38.3828125 23.50390625 C-33.68939123 33.07848564 -21.49290755 36.24076867 -12.27539062 40.26171875 C3.39459975 47.27431029 3.39459975 47.27431029 7.5546875 54.69140625 C7.93496094 55.34496094 8.31523438 55.99851562 8.70703125 56.671875 C11.75654027 62.8101571 11.69826288 70.66132745 9.86328125 77.18359375 C6.57157592 84.85133088 2.11574392 89.83037104 -5.3828125 93.50390625 C-17.01889413 98.05321542 -29.71104284 97.87130898 -41.3828125 93.50390625 C-47.05135751 90.64598666 -52.36119775 87.38855162 -57.3828125 83.50390625 C-56.78997629 80.11198262 -55.61538061 78.29313055 -53.3203125 75.75390625 C-52.77246094 75.1403125 -52.22460938 74.52671875 -51.66015625 73.89453125 C-51.23863281 73.435625 -50.81710937 72.97671875 -50.3828125 72.50390625 C-49.5578125 73.06078125 -48.7328125 73.61765625 -47.8828125 74.19140625 C-46.71723073 74.96387908 -45.55045348 75.73454959 -44.3828125 76.50390625 C-43.733125 76.93574219 -43.0834375 77.36757813 -42.4140625 77.8125 C-41.74375 78.24691406 -41.0734375 78.68132812 -40.3828125 79.12890625 C-39.7640625 79.53367187 -39.1453125 79.9384375 -38.5078125 80.35546875 C-30.83586946 84.50170267 -21.09936207 85.13961512 -12.734375 82.74609375 C-9.10940898 81.03467857 -6.10802085 79.15728864 -4.3828125 75.50390625 C-2.96389953 69.32149973 -3.33710379 66.05144711 -6.3828125 60.50390625 C-9.34505559 57.12656517 -13.04268728 55.62915177 -17.0703125 53.81640625 C-18.60339344 53.1066099 -20.13593246 52.39564207 -21.66796875 51.68359375 C-23.98913129 50.61037321 -26.31037356 49.53733477 -28.63232422 48.46582031 C-37.94296782 44.13209351 -45.7599465 40.34723851 -51.3203125 31.37890625 C-53.88370492 24.20463187 -53.46465731 15.9362289 -50.3203125 9.06640625 C-45.8191318 1.35188266 -40.28455866 -2.26206298 -31.76171875 -4.80078125 C-20.52688453 -7.11268933 -9.788299 -6.14576806 0 0 Z " fill="#FFFFFF" transform="translate(955.3828125,229.49609375)"/>
<path d="M0 0 C18.81 0 37.62 0 57 0 C57 3.63 57 7.26 57 11 C42.48 11 27.96 11 13 11 C13 20.9 13 30.8 13 41 C25.21 41 37.42 41 50 41 C50.73182484 44.65912418 51.20177399 47.36806821 51 51 C50 52 50 52 46.48999023 52.11352539 C44.92951578 52.11336626 43.36903607 52.10767142 41.80859375 52.09765625 C40.98875504 52.0962413 40.16891632 52.09482635 39.32423401 52.09336853 C36.69528618 52.08775289 34.06642227 52.07519779 31.4375 52.0625 C29.65950643 52.05748701 27.88151154 52.05292376 26.10351562 52.04882812 C21.73561842 52.03862752 17.3679036 52.01905532 13 52 C13 63.55 13 75.1 13 87 C28.18 87 43.36 87 59 87 C59 90.63 59 94.26 59 98 C39.53 98 20.06 98 0 98 C0 65.66 0 33.32 0 0 Z " fill="#FFFFFF" transform="translate(656,226)"/>
<path d="M0 0 C18.81 0 37.62 0 57 0 C57 3.63 57 7.26 57 11 C42.48 11 27.96 11 13 11 C13 20.9 13 30.8 13 41 C25.21 41 37.42 41 50 41 C50 44.63 50 48.26 50 52 C37.79 52 25.58 52 13 52 C13 63.55 13 75.1 13 87 C27.85 87 42.7 87 58 87 C58 90.63 58 94.26 58 98 C38.86 98 19.72 98 0 98 C0 65.66 0 33.32 0 0 Z " fill="#FFFFFF" transform="translate(735,226)"/>
<path d="M0 0 C4.62 0 9.24 0 14 0 C16.76449365 7.02377727 18.93505089 14.18291888 21.08984375 21.4140625 C21.47932227 22.71436923 21.86902081 24.01461008 22.25892639 25.31478882 C23.07330524 28.03243924 23.88589207 30.75061627 24.69702148 33.46923828 C25.72425603 36.91209725 26.75461339 40.3540107 27.78618526 43.79557228 C28.78438677 47.12639215 29.78088841 50.45771992 30.77734375 53.7890625 C31.14101547 55.00413483 31.50468719 56.21920715 31.87937927 57.47109985 C34.31389575 65.63065726 36.67765902 73.80793793 39 82 C42.16411329 74.10262626 44.45959049 65.9475366 46.8515625 57.79296875 C47.31543308 56.21967199 47.77957947 54.64645652 48.24398804 53.07331848 C49.45938222 48.95384357 50.67135911 44.83337144 51.88250732 40.71264648 C53.35800678 35.69461414 54.83718324 30.67766475 56.31621361 25.66067219 C57.46592638 21.76070902 58.61496017 17.86055067 59.76187134 13.95976257 C59.97239639 13.24442856 60.18292145 12.52909454 60.39982605 11.79208374 C60.96777293 9.86227315 61.53524943 7.93232415 62.10269165 6.00236511 C62.70356215 3.99187159 63.33643919 1.99068244 64 0 C68.62 0 73.24 0 78 0 C71.62242417 21.4991438 64.91114178 42.89036866 58.12718201 64.26404953 C57.43583743 66.4427394 56.74513923 68.62163334 56.05456543 70.80056763 C54.95334368 74.27443464 53.85015911 77.74767226 52.74535561 81.22040176 C52.33139417 82.52223651 51.91794528 83.82423436 51.50502586 85.12639999 C50.93521655 86.92258707 50.36305503 88.71802744 49.79077148 90.51342773 C49.46785629 91.52863998 49.1449411 92.54385223 48.8122406 93.58982849 C48 96 48 96 47 98 C41.72 98 36.44 98 31 98 C28.28502445 89.63538886 25.57170138 81.27024604 22.86097813 72.90425587 C21.60105806 69.01602124 20.34052332 65.12798856 19.07836914 61.24047852 C13.90100735 45.29233344 8.75189344 29.33698344 3.77734375 13.32421875 C3.39268448 12.08767044 3.00802521 10.85112213 2.61170959 9.57710266 C0 1.12885229 0 1.12885229 0 0 Z " fill="#FFFFFF" transform="translate(1050,226)"/>
</svg>
