<?xml version="1.0" encoding="UTF-8"?>
<svg version="1.1" xmlns="http://www.w3.org/2000/svg" width="200" height="200">
<path d="M0 0 C25.74 0 51.48 0 78 0 C82.29 7.59 86.58 15.18 91 23 C94.34475607 28.7804886 94.34475607 28.7804886 97.70703125 34.55078125 C99 37 99 37 99 39 C99.66 39 100.32 39 101 39 C101.26119629 38.13431396 101.52239258 37.26862793 101.79150391 36.37670898 C103.01265209 32.96464826 104.50856958 30.09786787 106.3359375 26.97265625 C106.98820312 25.85052734 107.64046875 24.72839844 108.3125 23.57226562 C108.99984108 22.40225038 109.68734222 21.23232914 110.375 20.0625 C111.05520303 18.89678504 111.73489483 17.73077161 112.4140625 16.56445312 C113.67367872 14.40351702 114.9356137 12.24392955 116.20068359 10.08618164 C118.15401596 6.73583233 120.07587956 3.36721077 122 0 C147.74 0 173.48 0 200 0 C198.52567141 4.42298576 197.29659767 7.52590216 195.015625 11.4296875 C194.4175 12.45964844 193.819375 13.48960938 193.203125 14.55078125 C192.55859375 15.64777344 191.9140625 16.74476562 191.25 17.875 C190.57241378 19.03746744 189.89533873 20.20023297 189.21875 21.36328125 C187.48455261 24.3414967 185.74407437 27.31598625 184.00170898 30.28942871 C182.4718065 32.90197118 180.94688494 35.51741191 179.421875 38.1328125 C177.70641347 41.0746486 175.99052056 44.01622329 174.27246094 46.95654297 C169.98915522 54.28957196 165.7387675 61.64115003 161.5 69 C156.69148156 77.34798459 151.86094317 85.68243184 147 94 C142.16323571 102.27777076 137.35134244 110.56940966 132.5625 118.875 C131.9442334 119.9472583 131.3259668 121.0195166 130.68896484 122.12426758 C127.46801634 127.71262578 124.25052593 133.30296154 121.03515625 138.89453125 C117.36781183 145.26943925 113.68797735 151.63700975 110 158 C109.5064502 158.8544873 109.01290039 159.70897461 108.50439453 160.58935547 C107.24013942 162.77274244 105.96623975 164.95007458 104.6875 167.125 C104.33252441 167.74076904 103.97754883 168.35653809 103.61181641 168.9909668 C102.7973924 170.36227412 101.9070563 171.68812382 101 173 C100.34 173 99.68 173 99 173 C97.72583008 171.20947266 97.72583008 171.20947266 96.26953125 168.6640625 C95.72176025 167.71547363 95.17398926 166.76688477 94.60961914 165.78955078 C94.01656982 164.74524902 93.42352051 163.70094727 92.8125 162.625 C92.19173584 161.54589355 91.57097168 160.46678711 90.93139648 159.35498047 C89.61329555 157.06255916 88.29779972 154.76885553 86.98632812 152.47265625 C84.47851826 148.08383596 81.9465749 143.70902181 79.41650391 139.33300781 C75.63850877 132.79589219 71.8728421 126.251663 68.10449219 119.70898438 C60.85966952 107.1323608 53.5926719 94.56963043 46.26928711 82.03857422 C41.35164118 73.61799495 36.47872892 65.17204102 31.61206055 56.72192383 C27.37063659 49.36230756 23.0997015 42.02052711 18.8125 34.6875 C14.2330519 26.8431351 9.66025216 18.99501635 5.125 11.125 C4.34733276 9.78634888 4.34733276 9.78634888 3.55395508 8.4206543 C3.08497803 7.6037915 2.61600098 6.78692871 2.1328125 5.9453125 C1.71918457 5.22875488 1.30555664 4.51219727 0.87939453 3.77392578 C0 2 0 2 0 0 Z " fill="#41B783" transform="translate(0,13)"/>
<path d="M0 0 C12.54 0 25.08 0 38 0 C44 10.625 44 10.625 45.94799805 14.07739258 C48.49487652 18.58729073 51.04487788 23.09448626 53.64453125 27.57421875 C54.01771484 28.21858887 54.39089844 28.86295898 54.77539062 29.52685547 C55.74918527 31.20348777 56.72793768 32.8772378 57.70703125 34.55078125 C59 37 59 37 59 39 C59.66 39 60.32 39 61 39 C61.26119629 38.13431396 61.52239258 37.26862793 61.79150391 36.37670898 C63.01265209 32.96464826 64.50856958 30.09786787 66.3359375 26.97265625 C66.98820312 25.85052734 67.64046875 24.72839844 68.3125 23.57226562 C68.99984108 22.40225038 69.68734222 21.23232914 70.375 20.0625 C71.05520303 18.89678504 71.73489483 17.73077161 72.4140625 16.56445312 C73.67367872 14.40351702 74.9356137 12.24392955 76.20068359 10.08618164 C78.15401596 6.73583233 80.07587956 3.36721077 82 0 C94.54 0 107.08 0 120 0 C118.49877006 3.75307485 117.02264097 6.87723639 115.015625 10.33203125 C114.4175 11.36521484 113.819375 12.39839844 113.203125 13.46289062 C112.55859375 14.56826172 111.9140625 15.67363281 111.25 16.8125 C110.57264387 17.97965943 109.89556488 19.14697975 109.21875 20.31445312 C107.15063886 23.87910806 105.07607734 27.43998022 103 31 C102.39478516 32.03817871 101.78957031 33.07635742 101.16601562 34.14599609 C98.87047327 38.08222143 96.57401775 42.01790738 94.2746582 45.9519043 C90.60815238 52.22844767 86.96634931 58.51868939 83.34057617 64.81884766 C80.84962509 69.14629596 78.35266837 73.4702526 75.85351562 77.79296875 C74.60329566 79.95615229 73.35463215 82.12023604 72.10742188 84.28515625 C70.30841178 87.40294016 68.49941887 90.51470486 66.6875 93.625 C66.142146 94.57391113 65.59679199 95.52282227 65.03491211 96.50048828 C64.5322583 97.35884277 64.02960449 98.21719727 63.51171875 99.1015625 C62.85369263 100.23585693 62.85369263 100.23585693 62.18237305 101.39306641 C61.59709839 102.18849854 61.59709839 102.18849854 61 103 C60.34 103 59.68 103 59 103 C58.6189209 102.33806641 58.2378418 101.67613281 57.84521484 100.99414062 C50.92595618 88.97898337 43.99622824 76.9705646 37 65 C31.51048228 55.60713563 26.06281764 46.19082735 20.63623047 36.76147461 C17.43611379 31.20551842 14.22054412 25.65938436 10.9765625 20.12890625 C10.33009766 19.02611328 9.68363281 17.92332031 9.01757812 16.78710938 C7.78175798 14.68149631 6.54358028 12.57726466 5.30273438 10.47460938 C4.47612305 9.06598633 4.47612305 9.06598633 3.6328125 7.62890625 C3.14699707 6.80463135 2.66118164 5.98035645 2.16064453 5.13110352 C1 3 1 3 0 0 Z " fill="#35495E" transform="translate(40,13)"/>
</svg>
