<?xml version="1.0" encoding="UTF-8"?>
<svg version="1.1" xmlns="http://www.w3.org/2000/svg" width="200" height="200">
<path d="M0 0 C66 0 132 0 200 0 C200 66 200 132 200 200 C134 200 68 200 0 200 C0 134 0 68 0 0 Z " fill="#262223" transform="translate(0,0)"/>
<path d="M0 0 C66 0 132 0 200 0 C200 66 200 132 200 200 C134 200 68 200 0 200 C0 134 0 68 0 0 Z M68 21.5625 C66.92564697 22.1716626 65.85129395 22.7808252 64.74438477 23.40844727 C61.48989271 25.26145579 58.2435254 27.12787129 55 29 C54.02144043 29.56299805 53.04288086 30.12599609 52.03466797 30.70605469 C49.32796154 32.27055444 46.63075001 33.84996736 43.9375 35.4375 C43.14794922 35.89648682 42.35839844 36.35547363 41.54492188 36.82836914 C34.31621188 41.14862852 27.69959437 46.07777935 23.1875 53.3125 C22.37345703 54.57513672 22.37345703 54.57513672 21.54296875 55.86328125 C17.15865803 64.77619645 16.55383408 73.13400472 16.6015625 82.96875 C16.59869232 84.28484253 16.59582214 85.60093506 16.59286499 86.95690918 C16.58847195 89.72707836 16.59477388 92.496955 16.60888672 95.26708984 C16.62597726 98.79048714 16.61611964 102.31319851 16.59816933 105.83657074 C16.58462707 109.23484986 16.59415138 112.6329515 16.6015625 116.03125 C16.59548981 117.28256714 16.58941711 118.53388428 16.5831604 119.82312012 C16.67106528 130.86861685 18.97806202 139.7234308 25 149 C25.38414063 149.59425781 25.76828125 150.18851563 26.1640625 150.80078125 C36.98402013 165.23845478 74.60394834 186.5265787 92 190 C108.10893447 191.3165077 119.31367952 186.85539531 133 179 C133.92135742 178.47374023 134.84271484 177.94748047 135.79199219 177.40527344 C142.89969991 173.3341812 149.96339745 169.19268406 157 165 C157.76957031 164.54383301 158.53914062 164.08766602 159.33203125 163.61767578 C171.92611524 156.09620895 178.7017704 148.88562858 184 135 C184.89762709 131.29705355 185.14085605 127.82849739 185.17700195 124.02319336 C185.18983719 122.84103745 185.20267242 121.65888153 185.21589661 120.44090271 C185.22328354 119.17005325 185.23067047 117.8992038 185.23828125 116.58984375 C185.25038887 114.61220787 185.25038887 114.61220787 185.26274109 112.59461975 C185.27773377 109.80307142 185.2875861 107.01154816 185.29516602 104.2199707 C185.30618003 100.67527813 185.34053451 97.13122202 185.38033772 93.58675289 C185.40672164 90.83347051 185.4148772 88.08033434 185.41844749 85.32693672 C185.42557729 83.3951071 185.4519242 81.46337834 185.47883606 79.53172302 C185.45382957 69.23855956 183.62142935 59.58617954 177.3125 51.1875 C176.71050781 50.35605469 176.10851562 49.52460937 175.48828125 48.66796875 C168.38654197 41.05338802 159.43895943 36.15117886 150.4375 31.125 C149.18337009 30.41883574 147.92954739 29.71212561 146.67602539 29.00488281 C144.22334525 27.62204021 141.76858004 26.24300414 139.3125 24.86621094 C136.52913684 23.29810746 133.75993763 21.71036453 131 20.1015625 C121.02548686 14.29827227 112.28209597 9.73986584 100.5625 9.4375 C99.89484619 9.41034912 99.22719238 9.38319824 98.53930664 9.35522461 C87.49362729 9.44134302 77.30404188 16.24643313 68 21.5625 Z " fill="#231F20" transform="translate(0,0)"/>
<path d="M0 0 C1.12857422 0.64710937 2.25714844 1.29421875 3.41992188 1.9609375 C6.44037445 3.69678347 9.45259632 5.44629529 12.45996094 7.20471191 C14.20766865 8.22528073 15.95925949 9.23919052 17.7109375 10.25292969 C25.96117032 15.12163978 33.65185336 20.03788653 38.8125 28.3125 C39.35519531 29.15425781 39.89789063 29.99601562 40.45703125 30.86328125 C44.84134197 39.77619645 45.44616592 48.13400472 45.3984375 57.96875 C45.40274277 59.94288879 45.40274277 59.94288879 45.40713501 61.95690918 C45.41152805 64.72707836 45.40522612 67.496955 45.39111328 70.26708984 C45.37402274 73.79048714 45.38388036 77.31319851 45.40183067 80.83657074 C45.41537293 84.23484986 45.40584862 87.6329515 45.3984375 91.03125 C45.40451019 92.28256714 45.41058289 93.53388428 45.4168396 94.82312012 C45.30985724 108.26575491 41.54145571 119.98771909 32.27734375 129.99609375 C27.83053116 133.90898373 22.67350594 136.67554399 17.53369141 139.56591797 C14.5749613 141.24057404 11.63703956 142.94908891 8.69921875 144.66015625 C-31.64085648 168.11059241 -31.64085648 168.11059241 -48 165 C-56.48560389 162.16312385 -64.25783977 157.86115179 -72 153.4375 C-73.07435303 152.8283374 -74.14870605 152.2191748 -75.25561523 151.59155273 C-78.51010729 149.73854421 -81.7564746 147.87212871 -85 146 C-85.97855957 145.43700195 -86.95711914 144.87400391 -87.96533203 144.29394531 C-90.67203846 142.72944556 -93.36924999 141.15003264 -96.0625 139.5625 C-97.24682617 138.87401978 -97.24682617 138.87401978 -98.45507812 138.17163086 C-105.44989738 133.99115695 -112.26981598 129.25059552 -116.3125 122 C-117.0240625 120.72576172 -117.0240625 120.72576172 -117.75 119.42578125 C-121.25631982 112.62132934 -123.1037294 106.73705061 -123.17700195 99.02319336 C-123.18983719 97.84103745 -123.20267242 96.65888153 -123.21589661 95.44090271 C-123.22328354 94.17005325 -123.23067047 92.8992038 -123.23828125 91.58984375 C-123.246353 90.27141983 -123.25442474 88.95299591 -123.26274109 87.59461975 C-123.27773377 84.80307142 -123.2875861 82.01154816 -123.29516602 79.2199707 C-123.30618003 75.67527813 -123.34053451 72.13122202 -123.38033772 68.58675289 C-123.40672164 65.83347051 -123.4148772 63.08033434 -123.41844749 60.32693672 C-123.42557729 58.3951071 -123.4519242 56.46337834 -123.47883606 54.53172302 C-123.45399542 44.30682849 -121.62780223 34.64634947 -115.4375 26.25 C-114.85871094 25.43015625 -114.27992187 24.6103125 -113.68359375 23.765625 C-106.17720471 16.02978302 -96.56753428 10.80632803 -87.25 5.5625 C-84.95110308 4.2564746 -82.65292155 2.94918911 -80.35546875 1.640625 C-79.26024902 1.01736328 -78.1650293 0.39410156 -77.03662109 -0.24804688 C-73.78253172 -2.1254665 -70.58005428 -4.07144333 -67.39013672 -6.05517578 C-42.14942286 -21.69322425 -23.9178735 -13.75547593 0 0 Z M-59.84521484 0.68945312 C-62.42972047 2.2613573 -65.05063526 3.76259011 -67.67578125 5.265625 C-72.87444387 8.25204714 -78.03801005 11.2940859 -83.19482422 14.35205078 C-85.64788346 15.79314303 -88.11491933 17.20077943 -90.59765625 18.58984375 C-101.66318313 24.83793547 -109.35851428 31.45432076 -113 44 C-113.55459244 48.65101033 -113.56160892 53.25361874 -113.53125 57.93359375 C-113.5350769 59.24731461 -113.53890381 60.56103546 -113.54284668 61.91456604 C-113.54870485 64.68062405 -113.54030129 67.44616132 -113.52148438 70.2121582 C-113.49871828 73.72667488 -113.51182476 77.23996761 -113.53577423 80.75443935 C-113.55385314 84.14758413 -113.54112723 87.54041442 -113.53125 90.93359375 C-113.53934692 92.1797496 -113.54744385 93.42590546 -113.55578613 94.70982361 C-113.43667403 105.93418925 -111.14710991 114.80625257 -103.24902344 123.00292969 C-99.52341479 126.31116663 -95.47439402 128.7252108 -91.125 131.125 C-90.19115479 131.65778564 -89.25730957 132.19057129 -88.29516602 132.73950195 C-86.28026014 133.88844039 -84.26164887 135.03090033 -82.23974609 136.16748047 C-78.79509815 138.11590002 -75.3739741 140.10123889 -71.95703125 142.09765625 C-70.19347323 143.12575706 -68.42964733 144.15339654 -66.66571045 145.18084717 C-64.96658264 146.17055986 -63.26771288 147.16071554 -61.56884766 148.15087891 C-60.00142822 149.05652588 -60.00142822 149.05652588 -58.40234375 149.98046875 C-57.47929443 150.51567139 -56.55624512 151.05087402 -55.60522461 151.60229492 C-47.20056147 156.11140339 -37.54942891 156.30801719 -28.26171875 154.453125 C-25.67594997 153.50634956 -23.40171231 152.35228377 -21 151 C-20.44538086 150.68804687 -19.89076172 150.37609375 -19.31933594 150.0546875 C-15.84500747 148.08291938 -12.41122337 146.05035193 -8.9921875 143.984375 C-5.32019961 141.77066942 -1.61277937 139.63016071 2.1171875 137.515625 C3.17341309 136.91282715 4.22963867 136.3100293 5.31787109 135.68896484 C7.38669762 134.50963531 9.45974111 133.33766223 11.53759766 132.17431641 C21.68166727 126.35284051 29.87711528 120.28271577 34 109 C34.87887141 105.31417706 35.14063832 101.86813848 35.17700195 98.08325195 C35.18983719 96.91466141 35.20267242 95.74607086 35.21589661 94.54206848 C35.22328354 93.2868187 35.23067047 92.03156891 35.23828125 90.73828125 C35.25038887 88.78682442 35.25038887 88.78682442 35.26274109 86.79594421 C35.27772941 84.04308201 35.28758492 81.29024522 35.29516602 78.53735352 C35.30620085 75.03505993 35.34058191 71.53340683 35.38033772 68.03133869 C35.41299411 64.66284722 35.41729844 61.29441863 35.42578125 57.92578125 C35.45204338 56.0580883 35.45204338 56.0580883 35.47883606 54.15266418 C35.45258417 43.52516633 33.11724641 35.04631046 25.66796875 27.2578125 C20.51105337 22.89368792 14.62074555 19.78179054 8.72705078 16.52490234 C5.61884505 14.78686716 2.54134345 13.00058027 -0.53515625 11.20703125 C-2.83592501 9.86716605 -5.13670624 8.52732227 -7.4375 7.1875 C-8.52659668 6.55312012 -9.61569336 5.91874023 -10.73779297 5.26513672 C-13.81312341 3.48760042 -16.90090112 1.73572072 -20 0 C-20.89122559 -0.50611816 -21.78245117 -1.01223633 -22.70068359 -1.53369141 C-28.13387104 -4.46407901 -32.56486226 -5.88683321 -38.75 -5.75 C-39.53165527 -5.73533691 -40.31331055 -5.72067383 -41.11865234 -5.70556641 C-48.31345293 -5.34531173 -53.70187258 -3.07473145 -59.84521484 0.68945312 Z " fill="#F7F7F7" transform="translate(140,25)"/>
<path d="M0 0 C5.01047171 2.27219066 8.58999562 5.80200796 11.640625 10.3515625 C13.61846896 16.28509437 13.64893735 22.99009369 11.015625 28.7265625 C8.15253999 33.68112096 3.94856628 37.1788325 -1.359375 39.3515625 C-8.73923557 40.24672189 -14.42894331 39.95067279 -20.359375 35.3515625 C-25.22882197 30.59929474 -27.63667944 25.7957123 -27.734375 18.9765625 C-27.59098584 12.6927434 -26.06638299 9.01033872 -21.60546875 4.62890625 C-15.09929042 -1.11663328 -8.62310249 -2.36992552 0 0 Z " fill="#F8F9F9" transform="translate(108.359375,80.6484375)"/>
<path d="M0 0 C3.555782 1.34211975 6.79105167 2.92244697 10.08203125 4.8203125 C11.01337891 5.35527344 11.94472656 5.89023438 12.90429688 6.44140625 C13.86400391 6.99699219 14.82371094 7.55257812 15.8125 8.125 C16.79154297 8.68832031 17.77058594 9.25164062 18.77929688 9.83203125 C21.18789555 11.21844415 23.59471395 12.60785055 26 14 C25.67 17.3 25.34 20.6 25 24 C18.4 24 11.8 24 5 24 C5 26.64 5 29.28 5 32 C11.27 32 17.54 32 24 32 C25.9955516 35.99110319 26.19546065 37.69986566 26 42 C22.48201093 44.02236934 18.95824147 46.0342145 15.42871094 48.03637695 C14.22816922 48.71935974 13.02926369 49.40522684 11.83203125 50.09399414 C10.1136784 51.08190478 8.38895491 52.05870854 6.6640625 53.03515625 C5.62717285 53.6269165 4.5902832 54.21867676 3.52197266 54.82836914 C2.68972168 55.21500732 1.8574707 55.60164551 1 56 C-2.51484474 54.24257763 -3.07653258 50.40276011 -4.30493164 46.84106445 C-8.29999117 33.72957883 -8.04182547 15.78321138 -1.875 3.375 C-1.25625 2.26125 -0.6375 1.1475 0 0 Z " fill="#F7F8F8" transform="translate(43,72)"/>
<path d="M0 0 C0 9.9 0 19.8 0 30 C-4 32 -4 32 -10 32 C-13.96 25.07 -13.96 25.07 -18 18 C-20.31 18.33 -22.62 18.66 -25 19 C-23.19998757 24.3052998 -21.16441178 28.5874273 -17.890625 33.140625 C-17 35 -17 35 -17.24609375 37.08984375 C-18.316332 39.80148366 -19.70381169 41.22865473 -22 43 C-25.55151774 42.58379144 -28.35684528 40.81247186 -31.421875 39.05859375 C-32.44667969 38.47529297 -33.47148438 37.89199219 -34.52734375 37.29101562 C-35.59082031 36.67935547 -36.65429688 36.06769531 -37.75 35.4375 C-38.82894531 34.82197266 -39.90789063 34.20644531 -41.01953125 33.57226562 C-43.68216602 32.05244312 -46.34217696 30.52821656 -49 29 C-45.06421511 18.30028765 -34.39204726 10.69069534 -24.52734375 5.625 C-16.06625954 1.72709188 -9.37876902 0 0 0 Z " fill="#F8F9F9" transform="translate(97,36)"/>
<path d="M0 0 C2.3125 1.8125 2.3125 1.8125 4 4 C3.58520076 8.06314708 1.27679087 11.66611442 -0.5625 15.25 C-0.89185547 15.8996875 -1.22121094 16.549375 -1.56054688 17.21875 C-2.37007565 18.81434294 -3.18455042 20.40742483 -4 22 C-1.35261084 23.4606285 -0.10551666 24 3 24 C5.64 19.38 8.28 14.76 11 10 C14.3 10.33 17.6 10.66 21 11 C21 21.23 21 31.46 21 42 C4.78909183 42 -8.78659986 34.69187279 -20.30859375 23.78125 C-23.04288243 20.95568608 -25.52616117 18.05301344 -28 15 C-23.7641029 10.2509244 -18.92603223 7.28519068 -13.4375 4.125 C-12.58736328 3.61453125 -11.73722656 3.1040625 -10.86132812 2.578125 C-10.03955078 2.10117188 -9.21777344 1.62421875 -8.37109375 1.1328125 C-7.62786865 0.69855957 -6.88464355 0.26430664 -6.11889648 -0.18310547 C-3.57303267 -1.16460798 -2.50644828 -0.99996332 0 0 Z " fill="#F7F8F8" transform="translate(76,122)"/>
<path d="M0 0 C4.94388293 4.09393171 6.01922616 10.91973816 7 17 C8.25999208 30.48191523 7.38987519 43.86460679 1 56 C-7.8794871 51.65940705 -16.64304739 47.30345069 -25 42 C-24.85950482 40.52031676 -24.71245174 39.04125484 -24.5625 37.5625 C-24.48128906 36.73878906 -24.40007812 35.91507813 -24.31640625 35.06640625 C-24 33 -24 33 -23 32 C-21.58429877 31.91348389 -20.164405 31.89295096 -18.74609375 31.90234375 C-17.46508789 31.90717773 -17.46508789 31.90717773 -16.15820312 31.91210938 C-15.26037109 31.92048828 -14.36253906 31.92886719 -13.4375 31.9375 C-12.53580078 31.94201172 -11.63410156 31.94652344 -10.70507812 31.95117188 C-8.46998686 31.96299775 -6.23502563 31.9794778 -4 32 C-4 29.36 -4 26.72 -4 24 C-10.6 24 -17.2 24 -24 24 C-24.33 20.7 -24.66 17.4 -25 14 C-21.58434853 12.03989199 -18.16730459 10.08222426 -14.75 8.125 C-13.78191406 7.56941406 -12.81382812 7.01382813 -11.81640625 6.44140625 C-10.88183594 5.90644531 -9.94726562 5.37148437 -8.984375 4.8203125 C-7.69611816 4.08192139 -7.69611816 4.08192139 -6.38183594 3.32861328 C-4.27999181 2.15618239 -2.1626285 1.05504751 0 0 Z " fill="#F7F8F8" transform="translate(158,72)"/>
<path d="M0 0 C3.07459024 0.42355683 5.49838578 1.68022467 8.1875 3.1796875 C8.96867187 3.61410156 9.74984375 4.04851562 10.5546875 4.49609375 C11.76511719 5.17865234 11.76511719 5.17865234 13 5.875 C13.80695313 6.32230469 14.61390625 6.76960938 15.4453125 7.23046875 C19.15311249 9.30463409 22.63599562 11.39289661 26 14 C25.6096263 18.95683818 23.10454468 21.55531157 19.6875 24.875 C19.15133057 25.4009375 18.61516113 25.926875 18.06274414 26.46875 C6.47692316 37.45743347 -6.21358974 41.68446581 -22 43 C-22 33.1 -22 23.2 -22 13 C-18 11 -18 11 -12 11 C-9.36 15.62 -6.72 20.24 -4 25 C0.86132495 24.50847518 0.86132495 24.50847518 3 22 C2.41089844 21.03578125 1.82179687 20.0715625 1.21484375 19.078125 C0.45507888 17.80247041 -0.30400012 16.52640715 -1.0625 15.25 C-1.64741211 14.29867187 -1.64741211 14.29867187 -2.24414062 13.328125 C-5.07168102 8.52380858 -5.07168102 8.52380858 -4.71655273 5.92871094 C-3.69564927 3.18079361 -2.30612305 1.77900921 0 0 Z " fill="#F8F9F9" transform="translate(127,121)"/>
<path d="M0 0 C16.15251962 -0.20278623 30.07921344 7.41562931 41.40625 18.4140625 C42.2621875 19.26742187 43.118125 20.12078125 44 21 C44.7940625 21.66773437 45.588125 22.33546875 46.40625 23.0234375 C48 25 48 25 47.89770508 27.41308594 C46.71467098 30.8222318 45.31320767 31.55138487 42.23046875 33.3671875 C41.25916016 33.94210938 40.28785156 34.51703125 39.28710938 35.109375 C38.26423828 35.69203125 37.24136719 36.2746875 36.1875 36.875 C35.17623047 37.48085937 34.16496094 38.08671875 33.12304688 38.7109375 C25.63541046 43.06594084 25.63541046 43.06594084 22.8215332 42.77392578 C20.18762576 41.65484166 18.73998244 40.25553279 17 38 C17.41479924 33.93685292 19.72320913 30.33388558 21.5625 26.75 C21.89185547 26.1003125 22.22121094 25.450625 22.56054688 24.78125 C23.37007565 23.18565706 24.18455042 21.59257517 25 20 C22.35261084 18.5393715 21.10551666 18 18 18 C15.36 22.62 12.72 27.24 10 32 C1.125 31.125 1.125 31.125 0 30 C-0.08783542 27.78144736 -0.10694609 25.56011504 -0.09765625 23.33984375 C-0.0962413 22.67537735 -0.09482635 22.01091095 -0.09336853 21.3263092 C-0.08775518 19.19666101 -0.07520054 17.06711661 -0.0625 14.9375 C-0.05748671 13.49674631 -0.05292351 12.05599097 -0.04882812 10.61523438 C-0.03778145 7.07678898 -0.02050792 3.53840461 0 0 Z " fill="#F8F9F9" transform="translate(105,36)"/>
<path d="M0 0 C3.62416894 1.64734952 6.12851416 3.45402683 8 7 C8.56172694 11.33332214 8.29780107 13.45574287 6.1875 17.3125 C4 20 4 20 1 22 C-5.90258449 22.66799205 -5.90258449 22.66799205 -9.875 20.25 C-12.79007536 17.16344962 -13.82513599 15.34062405 -14.375 11.125 C-13.89861498 7.15512486 -12.46959574 5.10463464 -10 2 C-6.27420911 -0.48386059 -4.41288598 -0.3804212 0 0 Z " fill="#272425" transform="translate(104,89)"/>
</svg>
