<?xml version="1.0" encoding="UTF-8"?>
<svg version="1.1" xmlns="http://www.w3.org/2000/svg" width="2048" height="1370">
<path d="M0 0 C675.84 0 1351.68 0 2048 0 C2048 452.1 2048 904.2 2048 1370 C1372.16 1370 696.32 1370 0 1370 C0 917.9 0 465.8 0 0 Z " fill="#444444" transform="translate(0,0)"/>
<path d="M0 0 C0.66354492 0.21930176 1.32708984 0.43860352 2.01074219 0.66455078 C13.03926009 4.41087938 22.97586853 10.16560457 33 16 C34.33200439 16.7739209 34.33200439 16.7739209 35.69091797 17.56347656 C39.60118059 19.8381672 43.50870504 22.11743849 47.41186523 24.40429688 C55.24373844 28.99096628 63.11382609 33.50770776 71 38 C80.87734546 43.62829614 90.72519057 49.30430578 100.53271484 55.05371094 C105.08050825 57.71915727 109.63441601 60.36951957 114.22265625 62.96484375 C134.77149401 74.60569182 152.52019281 87.45780286 165 108 C165.34756348 108.5676709 165.69512695 109.1353418 166.05322266 109.72021484 C170.45932284 117.03665481 173.76033665 124.49356797 176.375 132.625 C176.61371826 133.36379395 176.85243652 134.10258789 177.09838867 134.86376953 C180.48427475 146.08801251 181.29807869 157.37520135 181.2746582 169.04174805 C181.2790195 170.39375587 181.28420729 171.74576124 181.29014587 173.09776306 C181.30339834 176.73034585 181.30412985 180.36282373 181.30158257 183.99542594 C181.30050293 187.04885827 181.30542159 190.10227022 181.310188 193.15569812 C181.32123676 200.37261348 181.32174754 207.58947678 181.31567383 214.80639648 C181.30964473 222.20166074 181.32192864 229.59673422 181.3432439 236.99196595 C181.36097879 243.38482535 181.36684251 249.7776247 181.36360615 256.17050773 C181.36181116 259.96931744 181.36424721 263.76799121 181.37832069 267.56677818 C181.5071968 305.57086142 181.5071968 305.57086142 175.25 321.75 C174.99395996 322.43916504 174.73791992 323.12833008 174.47412109 323.83837891 C161.02315955 359.08330346 134.63900486 377.06695935 103.2265625 394.88671875 C96.78742036 398.53987179 90.38683517 402.25606733 84 406 C74.23480816 411.71756222 64.42515518 417.35486187 54.58886719 422.94897461 C48.70647478 426.29662186 42.84068965 429.66824932 37.0078125 433.1015625 C4.09663965 452.42661166 -26.73903457 462.66579382 -64.66015625 453.07421875 C-80.61770416 448.2991092 -95.11222494 439.27699706 -109.328125 430.77734375 C-114.99492611 427.3929351 -120.71739049 424.10573015 -126.4375 420.8125 C-128.09785278 419.85585449 -128.09785278 419.85585449 -129.79174805 418.87988281 C-132.06269493 417.57155064 -134.33377354 416.26344709 -136.60498047 414.95556641 C-139.91579285 413.04850419 -143.22569261 411.13987044 -146.53515625 409.23046875 C-148.13762207 408.30596924 -148.13762207 408.30596924 -149.77246094 407.36279297 C-151.92317699 406.12149467 -154.07356806 404.87963312 -156.22363281 403.63720703 C-161.76923882 400.43395379 -167.32166838 397.24358759 -172.88671875 394.07421875 C-207.47898673 374.33961341 -234.89851852 353.45715297 -246 313 C-249.8080007 297.29964206 -249.42948306 281.37678206 -249.37004495 265.33294654 C-249.35856153 261.49807281 -249.36285048 257.6632094 -249.36479187 253.82832336 C-249.36566906 247.39941995 -249.35471157 240.97062315 -249.33618164 234.54174805 C-249.31497771 227.14347052 -249.31151724 219.74534834 -249.3177436 212.34704655 C-249.32346498 205.17734107 -249.31776196 198.00768943 -249.30657005 190.83799171 C-249.30196524 187.8092326 -249.30103206 184.78050685 -249.3031559 181.75174522 C-249.30505888 178.18020704 -249.29678312 174.60882391 -249.2810955 171.03732109 C-249.27492865 169.12558848 -249.27832773 167.21383222 -249.28216553 165.30209351 C-249.21158027 153.64709716 -247.66381961 142.65787219 -243.875 131.625 C-243.56860596 130.72652344 -243.26221191 129.82804688 -242.9465332 128.90234375 C-237.06215615 112.22325024 -227.83336857 98.70427091 -215.5 86.125 C-215.00282471 85.61372559 -214.50564941 85.10245117 -213.9934082 84.57568359 C-206.41049806 77.08869818 -197.18532484 71.77065989 -188 66.5 C-186.96601074 65.90179443 -185.93202148 65.30358887 -184.86669922 64.68725586 C-181.58024321 62.7872349 -178.29021661 60.89349977 -175 59 C-172.85653042 57.76213496 -170.71329961 56.52385636 -168.5703125 55.28515625 C-163.14334336 52.14964735 -157.71326571 49.01956604 -152.28222656 45.89111328 C-147.934849 43.38629428 -143.58893611 40.8789411 -139.24316406 38.37133789 C-137.08637121 37.12684698 -134.92947069 35.88254266 -132.77246094 34.63842773 C-127.22955566 31.44133823 -121.68795719 28.24201499 -116.1484375 25.0390625 C-110.71138546 21.89551734 -105.26908171 18.76121294 -99.82470703 15.63037109 C-97.32367448 14.1868192 -94.83045881 12.73094838 -92.33984375 11.26953125 C-63.99637859 -5.23577991 -31.54525511 -10.67916031 0 0 Z " fill="#454545" transform="translate(1058,334)"/>
<path d="M0 0 C0.66354492 0.21930176 1.32708984 0.43860352 2.01074219 0.66455078 C13.03926009 4.41087938 22.97586853 10.16560457 33 16 C34.33200439 16.7739209 34.33200439 16.7739209 35.69091797 17.56347656 C39.60118059 19.8381672 43.50870504 22.11743849 47.41186523 24.40429688 C55.24373844 28.99096628 63.11382609 33.50770776 71 38 C80.87734546 43.62829614 90.72519057 49.30430578 100.53271484 55.05371094 C105.08050825 57.71915727 109.63441601 60.36951957 114.22265625 62.96484375 C134.77149401 74.60569182 152.52019281 87.45780286 165 108 C165.34756348 108.5676709 165.69512695 109.1353418 166.05322266 109.72021484 C170.45932284 117.03665481 173.76033665 124.49356797 176.375 132.625 C176.61371826 133.36379395 176.85243652 134.10258789 177.09838867 134.86376953 C180.48427475 146.08801251 181.29807869 157.37520135 181.2746582 169.04174805 C181.2790195 170.39375587 181.28420729 171.74576124 181.29014587 173.09776306 C181.30339834 176.73034585 181.30412985 180.36282373 181.30158257 183.99542594 C181.30050293 187.04885827 181.30542159 190.10227022 181.310188 193.15569812 C181.32123676 200.37261348 181.32174754 207.58947678 181.31567383 214.80639648 C181.30964473 222.20166074 181.32192864 229.59673422 181.3432439 236.99196595 C181.36097879 243.38482535 181.36684251 249.7776247 181.36360615 256.17050773 C181.36181116 259.96931744 181.36424721 263.76799121 181.37832069 267.56677818 C181.5071968 305.57086142 181.5071968 305.57086142 175.25 321.75 C174.99395996 322.43916504 174.73791992 323.12833008 174.47412109 323.83837891 C161.02315955 359.08330346 134.63900486 377.06695935 103.2265625 394.88671875 C96.78742036 398.53987179 90.38683517 402.25606733 84 406 C74.23480816 411.71756222 64.42515518 417.35486187 54.58886719 422.94897461 C48.70647478 426.29662186 42.84068965 429.66824932 37.0078125 433.1015625 C4.09663965 452.42661166 -26.73903457 462.66579382 -64.66015625 453.07421875 C-80.61770416 448.2991092 -95.11222494 439.27699706 -109.328125 430.77734375 C-114.99492611 427.3929351 -120.71739049 424.10573015 -126.4375 420.8125 C-128.09785278 419.85585449 -128.09785278 419.85585449 -129.79174805 418.87988281 C-132.06269493 417.57155064 -134.33377354 416.26344709 -136.60498047 414.95556641 C-139.91579285 413.04850419 -143.22569261 411.13987044 -146.53515625 409.23046875 C-148.13762207 408.30596924 -148.13762207 408.30596924 -149.77246094 407.36279297 C-151.92317699 406.12149467 -154.07356806 404.87963312 -156.22363281 403.63720703 C-161.76923882 400.43395379 -167.32166838 397.24358759 -172.88671875 394.07421875 C-207.47898673 374.33961341 -234.89851852 353.45715297 -246 313 C-249.8080007 297.29964206 -249.42948306 281.37678206 -249.37004495 265.33294654 C-249.35856153 261.49807281 -249.36285048 257.6632094 -249.36479187 253.82832336 C-249.36566906 247.39941995 -249.35471157 240.97062315 -249.33618164 234.54174805 C-249.31497771 227.14347052 -249.31151724 219.74534834 -249.3177436 212.34704655 C-249.32346498 205.17734107 -249.31776196 198.00768943 -249.30657005 190.83799171 C-249.30196524 187.8092326 -249.30103206 184.78050685 -249.3031559 181.75174522 C-249.30505888 178.18020704 -249.29678312 174.60882391 -249.2810955 171.03732109 C-249.27492865 169.12558848 -249.27832773 167.21383222 -249.28216553 165.30209351 C-249.21158027 153.64709716 -247.66381961 142.65787219 -243.875 131.625 C-243.56860596 130.72652344 -243.26221191 129.82804688 -242.9465332 128.90234375 C-237.06215615 112.22325024 -227.83336857 98.70427091 -215.5 86.125 C-215.00282471 85.61372559 -214.50564941 85.10245117 -213.9934082 84.57568359 C-206.41049806 77.08869818 -197.18532484 71.77065989 -188 66.5 C-186.96601074 65.90179443 -185.93202148 65.30358887 -184.86669922 64.68725586 C-181.58024321 62.7872349 -178.29021661 60.89349977 -175 59 C-172.85653042 57.76213496 -170.71329961 56.52385636 -168.5703125 55.28515625 C-163.14334336 52.14964735 -157.71326571 49.01956604 -152.28222656 45.89111328 C-147.934849 43.38629428 -143.58893611 40.8789411 -139.24316406 38.37133789 C-137.08637121 37.12684698 -134.92947069 35.88254266 -132.77246094 34.63842773 C-127.22955566 31.44133823 -121.68795719 28.24201499 -116.1484375 25.0390625 C-110.71138546 21.89551734 -105.26908171 18.76121294 -99.82470703 15.63037109 C-97.32367448 14.1868192 -94.83045881 12.73094838 -92.33984375 11.26953125 C-63.99637859 -5.23577991 -31.54525511 -10.67916031 0 0 Z M-82.875 34.25 C-84.99664266 35.50648098 -87.11907126 36.76163558 -89.2421875 38.015625 C-90.34530273 38.66853516 -91.44841797 39.32144531 -92.58496094 39.99414062 C-97.77199606 43.04080066 -102.99825866 46.01755282 -108.22711182 48.99157715 C-118.48993251 54.82909302 -128.71403895 60.72889823 -138.89990234 66.69995117 C-144.93588613 70.23190011 -150.9976261 73.71427552 -157.08029175 77.16487122 C-179.89091662 89.67914138 -179.89091662 89.67914138 -200 106 C-200.76957031 106.75796875 -201.53914062 107.5159375 -202.33203125 108.296875 C-218.53589398 125.19085114 -224.50233788 147.26230956 -224.38818359 170.20874023 C-224.39226451 171.55443748 -224.39761478 172.90013136 -224.40411377 174.24581909 C-224.41761432 177.85134807 -224.41256113 181.45661518 -224.40297651 185.06214786 C-224.39528745 188.86761512 -224.40245095 192.67306257 -224.40713501 196.47853088 C-224.41256668 202.86569165 -224.40547019 209.25274777 -224.39111328 215.63989258 C-224.37479877 222.98185385 -224.38007701 230.32356493 -224.3965925 237.66552013 C-224.41029016 244.01338768 -224.41208673 250.36118076 -224.40427649 256.70905834 C-224.39964418 260.48093539 -224.39885027 264.25269561 -224.40888596 268.02456474 C-224.94518642 294.31670284 -224.94518642 294.31670284 -217.75 319.3125 C-217.29222168 320.3020166 -217.29222168 320.3020166 -216.82519531 321.31152344 C-206.80672072 342.45019593 -191.04864517 355.42617652 -170.875 366.625 C-169.64935812 367.31405566 -168.4242721 368.00410085 -167.19970703 368.69506836 C-164.69202857 370.10963895 -162.18254448 371.52092166 -159.671875 372.93017578 C-154.04610682 376.09430085 -148.46139198 379.32952784 -142.875 382.5625 C-140.72662205 383.80348851 -138.57818456 385.04437396 -136.4296875 386.28515625 C-135.36975586 386.89762207 -134.30982422 387.51008789 -133.21777344 388.14111328 C-129.98175371 390.01054076 -126.74494423 391.87859255 -123.5078125 393.74609375 C-121.89616211 394.67591064 -121.89616211 394.67591064 -120.25195312 395.62451172 C-118.09210091 396.87015622 -115.93194682 398.11527746 -113.77148438 399.35986328 C-108.22214546 402.55785844 -102.67986512 405.76720334 -97.1484375 408.99609375 C-75.20412696 422.64481786 -75.20412696 422.64481786 -51 431 C-50.32710937 431.12890625 -49.65421875 431.2578125 -48.9609375 431.390625 C-36.37973455 433.23651578 -23.12458787 432.78617142 -11 429 C-9.33130859 428.51853516 -9.33130859 428.51853516 -7.62890625 428.02734375 C6.29711917 423.44428142 18.71714907 415.42867023 31.27880859 408.01416016 C34.87679331 405.89415611 38.48751932 403.79593559 42.09570312 401.69335938 C44.03805498 400.56086505 45.97945659 399.42673945 47.91992188 398.29101562 C54.99172025 394.15450435 62.09504732 390.07521315 69.21282959 386.01858521 C82.52512021 378.4313388 95.82679912 370.82718344 109 363 C109.72413086 362.57138672 110.44826172 362.14277344 111.19433594 361.70117188 C132.22260239 349.1442041 147.77373069 331.05854666 154 307 C155.82058685 298.41079685 156.29257715 290.09180839 156.2746582 281.33129883 C156.27976913 280.02061432 156.28488007 278.70992981 156.29014587 277.35952759 C156.30341 273.79926392 156.30412849 270.23910723 156.30158257 266.67882371 C156.3005037 263.68748032 156.30541969 260.69615777 156.310188 257.7048189 C156.32124088 250.63514624 156.32174525 243.56552671 156.31567383 236.49584961 C156.30964486 229.24884252 156.32192734 222.00203011 156.3432439 214.7550562 C156.3609731 208.49301682 156.36684337 202.23103875 156.36360615 195.96897525 C156.3618102 192.24675262 156.3642571 188.52466871 156.37832069 184.80246925 C156.48495954 153.88021422 153.69955985 128.07475918 131 105 C130.25105469 104.23816406 129.50210937 103.47632813 128.73046875 102.69140625 C122.58134244 96.8074164 115.77458312 92.55915686 108.42822266 88.3828125 C105.66691014 86.8103136 102.91721058 85.21850678 100.16796875 83.625 C94.59360183 80.39696903 89.01143326 77.18268583 83.42724609 73.97167969 C77.94844197 70.81974764 72.47440941 67.65955655 67 64.5 C64.83985995 63.25387817 62.67970366 62.00778449 60.51953125 60.76171875 C56.12040925 58.22384007 51.72205679 55.68463417 47.32421875 53.14453125 C42.95727968 50.6222999 38.58869628 48.10295473 34.21875 45.5859375 C30.19257241 43.26688918 26.17219244 40.93828445 22.15625 38.6015625 C-13.04092178 18.1878209 -46.48582868 12.38695255 -82.875 34.25 Z " fill="#FBFBFB" transform="translate(1058,334)"/>
<path d="M0 0 C10.63371801 8.76324406 17.33611146 19.43838562 20 33 C21.26628265 48.44864838 18.56357518 62.89067276 8.63671875 75.16796875 C0.8401504 83.89491518 -11.5033977 92.1577734 -23.44726562 93.21704102 C-45.85708197 94.17437264 -45.85708197 94.17437264 -55 89 C-55.92683594 88.49082031 -56.85367188 87.98164062 -57.80859375 87.45703125 C-71.0028525 79.63356982 -79.38520718 68.3989361 -83.5 53.5625 C-85.77992019 38.81338668 -84.10754204 25.35044249 -75.75 12.6875 C-56.49708871 -12.58194606 -26.49716132 -17.99742256 0 0 Z " fill="#FBFBFB" transform="translate(1056,518)"/>
<path d="M0 0 C0 25.74 0 51.48 0 78 C-18 83 -18 83 -23 83 C-24.60229492 81.25024414 -24.60229492 81.25024414 -25.98046875 78.78515625 C-26.50036377 77.87862305 -27.02025879 76.97208984 -27.5559082 76.03808594 C-28.0943335 75.05614258 -28.63275879 74.07419922 -29.1875 73.0625 C-30.33049798 71.04804589 -31.47373002 69.03372457 -32.6171875 67.01953125 C-33.18276367 66.00842285 -33.74833984 64.99731445 -34.33105469 63.95556641 C-37.15852415 58.94834795 -40.13714598 54.03106867 -43.10424805 49.10571289 C-46 44.22243037 -46 44.22243037 -46 42 C-48.65776621 43.20753076 -51.29910569 44.43891408 -53.9375 45.6875 C-55.06961914 46.19700195 -55.06961914 46.19700195 -56.22460938 46.71679688 C-60.51810836 48.68520132 -60.51810836 48.68520132 -63.1640625 52.40625 C-62.95187342 55.76085828 -61.99802664 57.8230574 -60.4375 60.8125 C-60.14101563 61.3885498 -59.84453125 61.96459961 -59.5390625 62.55810547 C-57.29255784 66.82668118 -54.84717295 70.96982402 -52.37890625 75.11328125 C-51.42383179 76.721427 -51.42383179 76.721427 -50.44946289 78.36206055 C-49.15805884 80.52356526 -47.8539767 82.6775496 -46.53686523 84.82348633 C-45.93688721 85.82275146 -45.33690918 86.8220166 -44.71875 87.8515625 C-43.89793945 89.19468506 -43.89793945 89.19468506 -43.06054688 90.56494141 C-42 93 -42 93 -42.13256836 95.10595703 C-43.16903579 97.36909081 -44.37641258 98.71759062 -46.16015625 100.453125 C-46.78857422 101.071875 -47.41699219 101.690625 -48.06445312 102.328125 C-48.72380859 102.96234375 -49.38316406 103.5965625 -50.0625 104.25 C-51.05733398 105.22453125 -51.05733398 105.22453125 -52.07226562 106.21875 C-53.70829317 107.8194676 -55.35090912 109.41276193 -57 111 C-63.14111774 109.37743043 -68.22240625 106.10259241 -73.625 102.875 C-75.76488215 101.61072099 -77.90554071 100.34775542 -80.046875 99.0859375 C-81.17287109 98.42174805 -82.29886719 97.75755859 -83.45898438 97.07324219 C-90.14866774 93.14413647 -96.90269294 89.32554409 -103.64776611 85.49261475 C-110.8200947 81.41618267 -117.94949592 77.28415354 -125 73 C-123.0504537 58.0015788 -99.81690931 40.27840336 -88.22436523 31.14941406 C-69.47374914 17.29153271 -47.64607049 7.70187593 -25.125 2 C-23.9328186 1.68784546 -23.9328186 1.68784546 -22.71655273 1.36938477 C-14.80138108 -0.47009629 -8.64391126 0 0 0 Z " fill="#FCFCFC" transform="translate(1013,396)"/>
<path d="M0 0 C35.03547384 19.05615921 35.03547384 19.05615921 49.6796875 27.9921875 C55.38667848 31.44323851 61.19499607 34.71735525 67 38 C66.39548456 46.61434503 64.33254538 53.25295481 62 62 C45.83 62 29.66 62 13 62 C13 69.26 13 76.52 13 84 C29.17 84 45.34 84 62 84 C67 101 67 101 67 107 C65.03515625 108.84375 65.03515625 108.84375 62.0625 110.5 C61.50328857 110.81984863 60.94407715 111.13969727 60.36791992 111.46923828 C59.04479111 112.22075487 57.7151281 112.96082693 56.38085938 113.69238281 C53.64183115 115.19671374 50.9226496 116.73413377 48.203125 118.2734375 C41.81816314 121.87806705 35.41091489 125.44179376 29 129 C27.23296206 129.98287365 25.46602645 130.96593128 23.69921875 131.94921875 C15.87568301 136.30131136 15.87568301 136.30131136 13.015625 137.87158203 C11.53492796 138.70052846 10.06797618 139.5541506 8.609375 140.42138672 C7.81015625 140.88947754 7.0109375 141.35756836 6.1875 141.83984375 C5.45917969 142.27546631 4.73085938 142.71108887 3.98046875 143.15991211 C2 144 2 144 -1 143 C-13.38139867 124.66754197 -16.40624889 99.5826792 -16.25 78.0625 C-16.24656586 77.29131836 -16.24313171 76.52013672 -16.23959351 75.72558594 C-15.9277596 15.9277596 -15.9277596 15.9277596 0 0 Z " fill="#FCFCFC" transform="translate(876,487)"/>
<path d="M0 0 C14.23402885 0 14.23402885 0 21.1875 1.4375 C22.43720581 1.69430542 22.43720581 1.69430542 23.7121582 1.95629883 C58.37266943 9.64345173 85.7205173 27.67960814 110.5625 52.3125 C111.3369043 53.07755859 112.11130859 53.84261719 112.90917969 54.63085938 C122.73546182 64.5133411 122.73546182 64.5133411 123.3125 69.9375 C119.79477081 78.14553477 108.61921443 82.75496064 101.1875 86.9375 C99.48574681 87.90261637 97.78400303 88.86774961 96.08270264 89.83366394 C94.89870709 90.50551462 93.71417093 91.17641342 92.52911377 91.84638977 C88.71781421 94.00575639 84.9348209 96.20802819 81.1676178 98.44340515 C78.61188457 99.95916742 76.04913683 101.46283628 73.48574829 102.96560669 C72.24879051 103.69478146 71.01500383 104.4293635 69.78451538 105.16940308 C68.06558436 106.20181347 66.33382003 107.21276571 64.6015625 108.22265625 C63.61494629 108.80797119 62.62833008 109.39328613 61.61181641 109.99633789 C59 111 59 111 56.85424805 110.35253906 C53.69680785 108.04941613 50.97172825 105.42314848 48.1875 102.6875 C47.57712891 102.11837891 46.96675781 101.54925781 46.33789062 100.96289062 C45.4803418 100.12081055 45.4803418 100.12081055 44.60546875 99.26171875 C44.08106201 98.75600342 43.55665527 98.25028809 43.01635742 97.72924805 C42 96 42 96 42.1550293 93.6262207 C43.09524818 90.70396282 44.33699723 88.35303135 45.9140625 85.71875 C46.50751465 84.71739014 47.1009668 83.71603027 47.71240234 82.68432617 C48.34355957 81.63349854 48.9747168 80.5826709 49.625 79.5 C50.90246796 77.34068692 52.17852232 75.18053689 53.453125 73.01953125 C54.06607422 71.9826416 54.67902344 70.94575195 55.31054688 69.87744141 C61.31513892 60.94006898 61.31513892 60.94006898 64 51 C61.56401192 49.68462636 59.1263175 48.37260857 56.6875 47.0625 C55.99720703 46.68931641 55.30691406 46.31613281 54.59570312 45.93164062 C53.92861328 45.57392578 53.26152344 45.21621094 52.57421875 44.84765625 C51.65515747 44.3527771 51.65515747 44.3527771 50.7175293 43.84790039 C48.83026062 42.8676439 48.83026062 42.8676439 46 42 C45.72687988 42.72058594 45.45375977 43.44117188 45.17236328 44.18359375 C44.02394923 46.94246598 42.7122961 49.46248132 41.2421875 52.0625 C40.70231201 53.01890381 40.16243652 53.97530762 39.60620117 54.96069336 C39.03490479 55.96366455 38.4636084 56.96663574 37.875 58 C37.29403564 59.02424072 36.71307129 60.04848145 36.11450195 61.10375977 C31.8987637 68.50368228 27.56704842 75.811383 23 83 C14.62381915 82.42233236 8.50542202 80.43012058 0 78 C0 52.26 0 26.52 0 0 Z " fill="#FCFCFC" transform="translate(1035,396)"/>
<path d="M0 0 C2.41997473 0.9442241 3.67341832 2.09315927 5.48168945 3.95166016 C6.10043945 4.58007812 6.71918945 5.20849609 7.35668945 5.85595703 C7.9909082 6.5153125 8.62512695 7.17466797 9.27856445 7.85400391 C10.2530957 8.84883789 10.2530957 8.84883789 11.24731445 9.86376953 C12.84803205 11.49979708 14.44132638 13.14241303 16.02856445 14.79150391 C14.42393415 20.66870406 11.45299718 25.57429473 8.40356445 30.79150391 C7.87029541 31.71761475 7.33702637 32.64372559 6.78759766 33.59790039 C4.36626955 37.79887732 1.92183126 41.98375018 -0.5769043 46.13916016 C-1.14320557 47.09338867 -1.14320557 47.09338867 -1.72094727 48.06689453 C-2.71774781 49.74272824 -3.72886384 51.41002355 -4.7409668 53.07666016 C-6.15630155 55.60503438 -6.15630155 55.60503438 -5.78686523 57.8137207 C-4.71868124 60.40454661 -3.63530017 60.90155728 -1.1550293 62.15087891 C-0.39125977 62.54404297 0.37250977 62.93720703 1.15942383 63.34228516 C1.96186523 63.73802734 2.76430664 64.13376953 3.59106445 64.54150391 C4.39737305 64.95271484 5.20368164 65.36392578 6.03442383 65.78759766 C8.02658291 66.80135908 10.02432623 67.80189743 12.02856445 68.79150391 C12.29572266 67.91461914 12.56288086 67.03773438 12.83813477 66.13427734 C13.98478935 62.91442612 15.34043074 60.24385726 17.07543945 57.30712891 C17.67356445 56.28876953 18.27168945 55.27041016 18.88793945 54.22119141 C19.5118457 53.17189453 20.13575195 52.12259766 20.77856445 51.04150391 C21.38700195 50.00767578 21.99543945 48.97384766 22.62231445 47.90869141 C24.41643308 44.86482349 26.22068995 41.82721821 28.02856445 38.79150391 C28.60799805 37.81503906 29.18743164 36.83857422 29.78442383 35.83251953 C30.32389648 34.92695312 30.86336914 34.02138672 31.41918945 33.08837891 C31.89904297 32.28239258 32.37889648 31.47640625 32.87329102 30.64599609 C34.02856445 28.79150391 34.02856445 28.79150391 35.02856445 27.79150391 C43.35854403 28.21506219 49.64784599 30.39701292 58.02856445 32.79150391 C58.02856445 58.53150391 58.02856445 84.27150391 58.02856445 110.79150391 C37.10908593 109.62931065 37.10908593 109.62931065 30.65356445 107.72900391 C29.87867676 107.51131348 29.10378906 107.29362305 28.30541992 107.06933594 C2.12808095 99.41523542 -21.63416599 86.88831554 -41.48071289 68.18066406 C-43.87776644 65.94692107 -46.33717133 63.78299639 -48.78393555 61.60400391 C-52.61192717 58.12851799 -56.15448979 54.57265618 -59.46362305 50.60009766 C-60.45226249 49.41424258 -61.47817181 48.25829634 -62.54174805 47.13916016 C-64.62398221 44.90331855 -65.89949474 43.36703033 -66.28393555 40.29150391 C-62.73137023 33.52471283 -53.50016519 29.57061632 -47.09643555 25.85400391 C-45.69349243 25.03234741 -45.69349243 25.03234741 -44.26220703 24.1940918 C-41.16927834 22.38626571 -38.07121019 20.58756496 -34.97143555 18.79150391 C-33.83432129 18.1324707 -32.69720703 17.4734375 -31.52563477 16.79443359 C-24.89771212 12.95575981 -18.26964194 9.11701368 -11.61645508 5.32226562 C-9.99828261 4.38577482 -8.39162017 3.42854707 -6.80688477 2.43652344 C-2.46008803 -0.26017525 -2.46008803 -0.26017525 0 0 Z " fill="#FCFCFC" transform="translate(954.971435546875,613.20849609375)"/>
<path d="M0 0 C2.237113 0.88656844 4.3053045 1.89275331 6.41821289 3.04638672 C7.70344849 3.74598511 7.70344849 3.74598511 9.01464844 4.4597168 C9.93673096 4.96913818 10.85881348 5.47855957 11.80883789 6.00341797 C13.25093628 6.79558716 13.25093628 6.79558716 14.72216797 7.60375977 C22.11563608 11.68885506 29.44564425 15.88002094 36.74633789 20.12841797 C37.71216797 20.69004639 38.67799805 21.2516748 39.6730957 21.83032227 C60.33837801 33.94083261 60.33837801 33.94083261 64.05883789 38.81591797 C64.50024414 41.05419922 64.50024414 41.05419922 64.05883789 43.81591797 C62.38289822 46.19610889 60.75174659 48.23904539 58.80883789 50.37841797 C58.26815674 50.98903076 57.72747559 51.59964355 57.17041016 52.22875977 C32.69064539 79.5872456 4.36638825 97.20535262 -30.94116211 106.81591797 C-32.13999023 107.14720703 -33.33881836 107.47849609 -34.57397461 107.81982422 C-42.91593964 109.94118388 -50.04772882 110.22302242 -58.94116211 110.81591797 C-58.94116211 85.07591797 -58.94116211 59.33591797 -58.94116211 32.81591797 C-40.51654569 27.28853304 -40.51654569 27.28853304 -35.94116211 27.81591797 C-34.39306641 29.33642578 -34.39306641 29.33642578 -33.07788086 31.51904297 C-32.57434082 32.34210937 -32.07080078 33.16517578 -31.55200195 34.01318359 C-31.0204248 34.93808594 -30.48884766 35.86298828 -29.94116211 36.81591797 C-29.3670459 37.80785156 -28.79292969 38.79978516 -28.20141602 39.82177734 C-26.35938372 43.05593316 -24.55189332 46.30722363 -22.75366211 49.56591797 C-21.53164076 51.7693952 -20.30900711 53.97253299 -19.08569336 56.17529297 C-18.55306885 57.13918945 -18.02044434 58.10308594 -17.47167969 59.09619141 C-16.43665566 60.93542696 -15.35930625 62.7513754 -14.24462891 64.54345703 C-12.94116211 66.81591797 -12.94116211 66.81591797 -12.94116211 68.81591797 C-10.117084 67.42150987 -7.30940129 65.99682252 -4.50366211 64.56591797 C-3.7012207 64.17017578 -2.8987793 63.77443359 -2.07202148 63.36669922 C-0.92636719 62.77695312 -0.92636719 62.77695312 0.24243164 62.17529297 C0.94940186 61.81918945 1.65637207 61.46308594 2.38476562 61.09619141 C4.17674525 59.92504702 4.17674525 59.92504702 4.94921875 57.97436523 C5.10055072 54.99457475 4.12360175 53.49157907 2.62915039 50.92138672 C2.08468262 49.97239502 1.54021484 49.02340332 0.97924805 48.0456543 C0.3867627 47.04171631 -0.20572266 46.03777832 -0.81616211 45.00341797 C-1.4073584 43.97692139 -1.99855469 42.9504248 -2.60766602 41.89282227 C-5.28953885 37.25603779 -8.02009485 32.65457197 -10.84741211 28.10498047 C-11.26909668 27.42282471 -11.69078125 26.74066895 -12.12524414 26.0378418 C-12.90015787 24.79540632 -13.68705035 23.56033592 -14.48754883 22.33422852 C-17.0000687 18.3341411 -17.0000687 18.3341411 -16.71826172 15.85498047 C-15.2394839 11.97475668 -12.02450894 9.3876232 -9.12866211 6.50341797 C-8.18410156 5.51631836 -8.18410156 5.51631836 -7.22045898 4.50927734 C-6.6062207 3.89246094 -5.99198242 3.27564453 -5.35913086 2.64013672 C-4.79991943 2.07383545 -4.24070801 1.50753418 -3.66455078 0.92407227 C-1.94116211 -0.18408203 -1.94116211 -0.18408203 0 0 Z " fill="#FCFCFC" transform="translate(1093.941162109375,613.18408203125)"/>
<path d="M0 0 C4.3305991 3.53285716 5.70533365 7.63792009 7.5 12.75 C7.80188232 13.59256348 8.10376465 14.43512695 8.41479492 15.30322266 C14.46653023 32.57300691 17.39993243 49.6805275 17.25 68 C17.24556885 68.72365753 17.2411377 69.44731506 17.23657227 70.19290161 C17.06530836 94.14580575 15.83554271 121.32435247 2 142 C-1 143 -1 143 -3.17871094 142.12646484 C-4.02208008 141.65934082 -4.86544922 141.1922168 -5.734375 140.7109375 C-7.16704712 139.92650269 -7.16704712 139.92650269 -8.62866211 139.1262207 C-9.65870361 138.54831787 -10.68874512 137.97041504 -11.75 137.375 C-12.81677979 136.78614014 -13.88355957 136.19728027 -14.98266602 135.59057617 C-18.32837536 133.73863214 -21.66501621 131.87117935 -25 130 C-26.53793213 129.14124268 -26.53793213 129.14124268 -28.10693359 128.26513672 C-38.08552576 122.69005941 -48.01522132 117.03278396 -57.875 111.25 C-58.58906006 110.83145752 -59.30312012 110.41291504 -60.03881836 109.98168945 C-64.87334736 107.12665264 -64.87334736 107.12665264 -66 106 C-66.08722699 97.83555352 -63.41578835 90.85131215 -61 83 C-44.83 83 -28.66 83 -12 83 C-12 75.74 -12 68.48 -12 61 C-28.17 61 -44.34 61 -61 61 C-66 44 -66 44 -66 38 C-64.453125 36.34765625 -64.453125 36.34765625 -62.25 35.0625 C-61.42371094 34.56621094 -60.59742188 34.06992187 -59.74609375 33.55859375 C-58.83988281 33.04425781 -57.93367188 32.52992188 -57 32 C-56.08347656 31.45472656 -55.16695312 30.90945313 -54.22265625 30.34765625 C-51.16391223 28.53704402 -48.08526927 26.76500898 -45 25 C-43.87948242 24.35643555 -42.75896484 23.71287109 -41.60449219 23.04980469 C-33.5104305 18.40720847 -25.38754265 13.81590471 -17.25 9.25 C-16.20972656 8.66605469 -15.16945313 8.08210938 -14.09765625 7.48046875 C-9.44554552 4.88094056 -4.79929516 2.31802692 0 0 Z " fill="#FCFCFC" transform="translate(1171,488)"/>
<path d="M0 0 C1.69227974 -0.00430527 1.69227974 -0.00430527 3.41874695 -0.00869751 C5.7860871 -0.01072676 8.15344447 -0.0052773 10.52075195 0.00732422 C14.14377057 0.02346892 17.76568638 0.00739732 21.38867188 -0.01171875 C23.69661704 -0.00973759 26.00456152 -0.00589654 28.3125 0 C29.39275955 -0.00607269 30.4730191 -0.01214539 31.58601379 -0.0184021 C38.19236404 0.04354882 42.01841796 0.59263671 46.82421875 5.3984375 C47.23046875 7.60546875 47.23046875 7.60546875 47.32421875 10.2109375 C47.37578125 11.06300781 47.42734375 11.91507813 47.48046875 12.79296875 C46.7027241 15.88080019 45.40846906 17.378536 42.92877197 19.34364319 C38.33011821 21.64847149 33.010453 20.99526835 27.98828125 20.88671875 C26.75379242 20.87964401 25.51930359 20.87256927 24.24740601 20.86528015 C20.31405421 20.83734685 16.38213855 20.77460419 12.44921875 20.7109375 C9.77866664 20.68303331 7.10812804 20.66304083 4.4375 20.64257812 C-2.1008117 20.58752264 -8.63805318 20.50125186 -15.17578125 20.3984375 C-15.17578125 24.0284375 -15.17578125 27.6584375 -15.17578125 31.3984375 C-13.40702637 31.35916138 -13.40702637 31.35916138 -11.60253906 31.3190918 C-7.17451394 31.22772266 -2.74656985 31.17087708 1.68212891 31.1237793 C3.58884756 31.09883067 5.49547254 31.06485891 7.40185547 31.02124023 C20.16326591 30.73683544 30.79587644 30.82067641 41.38671875 38.8984375 C46.06211287 43.69371352 47.20488967 47.11806786 47.234375 53.703125 C47.22277344 54.59257813 47.21117187 55.48203125 47.19921875 56.3984375 C47.21082031 57.28789063 47.22242188 58.17734375 47.234375 59.09375 C47.20690269 65.2292316 46.31056588 68.6364676 42.1328125 73.27734375 C41.20662109 74.11072266 41.20662109 74.11072266 40.26171875 74.9609375 C39.36259766 75.79818359 39.36259766 75.79818359 38.4453125 76.65234375 C30.2795253 82.09214536 22.40827621 83.00612412 12.7734375 82.96484375 C11.55646683 82.97104233 10.33949615 82.97724091 9.08564758 82.98362732 C6.53000687 82.99069336 3.97431982 82.9876082 1.41870117 82.97485352 C-2.49450508 82.96091533 -6.40535187 82.99519848 -10.31835938 83.03320312 C-12.80859433 83.03415372 -15.29883229 83.0322987 -17.7890625 83.02734375 C-18.95681717 83.04060196 -20.12457184 83.05386017 -21.32771301 83.06752014 C-30.31564057 82.96403285 -30.31564057 82.96403285 -33.40625 80.01538086 C-35.3079882 77.20291786 -35.87906255 75.76511587 -35.86328125 72.3984375 C-35.88777344 71.5734375 -35.91226563 70.7484375 -35.9375 69.8984375 C-35.03676711 66.94218595 -33.68336218 65.37174931 -31.27662659 63.4569397 C-26.68433154 61.14313091 -21.35926709 61.80166605 -16.33984375 61.91015625 C-15.10535492 61.91723099 -13.87086609 61.92430573 -12.59896851 61.93159485 C-8.66561671 61.95952815 -4.73370105 62.02227081 -0.80078125 62.0859375 C1.86977086 62.11384169 4.54030946 62.13383417 7.2109375 62.15429688 C13.7492492 62.20935236 20.28649068 62.29562314 26.82421875 62.3984375 C26.82421875 58.7684375 26.82421875 55.1384375 26.82421875 51.3984375 C24.99431396 51.4298584 24.99431396 51.4298584 23.12744141 51.46191406 C18.56148209 51.53481837 13.99557327 51.5804192 9.42919922 51.61816406 C7.46036093 51.63816537 5.49158119 51.66537552 3.52294922 51.70019531 C0.67791217 51.74922281 -2.1663334 51.77152132 -5.01171875 51.7890625 C-6.31234756 51.82003021 -6.31234756 51.82003021 -7.63925171 51.85162354 C-16.59060012 51.85484263 -23.99133104 48.97882478 -30.703125 43.05859375 C-35.55645816 37.58732958 -35.66698345 33.02521742 -35.61328125 25.9609375 C-35.63326172 25.03216797 -35.65324219 24.10339844 -35.67382812 23.14648438 C-35.66973227 17.39181503 -35.12014085 13.8885141 -31.17578125 9.3984375 C-29.16796875 7.60546875 -29.16796875 7.60546875 -27.05078125 6.2109375 C-26.36757813 5.74300781 -25.684375 5.27507813 -24.98046875 4.79296875 C-16.83376311 0.7423087 -8.99533518 -0.05104565 0 0 Z " fill="#FEFEFE" transform="translate(916.17578125,856.6015625)"/>
<path d="M0 0 C6.53980806 0.53604984 10.48347231 4.73411862 14.9296875 9.26953125 C15.62096237 9.96860847 15.62096237 9.96860847 16.32620239 10.68180847 C17.78488847 12.15812091 19.23666118 13.64097839 20.6875 15.125 C26.17897977 20.72268902 31.64776792 26.26576319 37.62548828 31.3503418 C42.56333727 35.78051508 47.15812328 40.58830763 51.8125 45.3125 C51.81660889 44.19278809 51.82071777 43.07307617 51.82495117 41.91943359 C51.84679358 37.74807281 51.90113545 33.57764846 51.96508789 29.40673828 C51.98822354 27.60474654 52.00265319 25.80262043 52.00805664 24.00048828 C52.01737904 21.40312397 52.05843792 18.80785999 52.10546875 16.2109375 C52.09956978 15.01058365 52.09956978 15.01058365 52.09355164 13.78598022 C52.24386372 7.96777345 53.62661589 5.3776108 57.8125 1.3125 C60.96161479 -0.26205739 63.33258816 -0.03549118 66.8125 0.3125 C69.78922584 2.08530561 72.24054007 4.16858015 73.8125 7.3125 C73.92992478 9.43490107 73.98231274 11.56100157 74.00537109 13.68652344 C74.01763733 14.66736908 74.01763733 14.66736908 74.03015137 15.66802979 C74.05499908 17.83596889 74.0715215 20.00384245 74.0859375 22.171875 C74.09126118 22.91276619 74.09658485 23.65365738 74.10206985 24.41699982 C74.12880146 28.34016383 74.14817441 32.26329606 74.16259766 36.18652344 C74.1759278 39.43030048 74.20376174 42.67344707 74.24462891 45.91699219 C74.29400224 49.83566496 74.31872451 53.75376659 74.32582474 57.67273712 C74.33252927 59.16386395 74.34773084 60.65497844 74.37171555 62.14592743 C74.57093387 75.28159273 74.57093387 75.28159273 71.40478516 79.21191406 C68.47298201 81.58761893 67.41333569 82.228383 63.6875 82.75 C54.93699648 81.76203993 48.46978256 73.22851531 42.5703125 67.23046875 C41.72072968 66.37568436 40.87114685 65.52089996 39.99581909 64.64021301 C37.30486699 61.93156441 34.6207582 59.21626883 31.9375 56.5 C29.23191496 53.76680205 26.52487429 51.03508568 23.81491089 48.30622864 C22.13386332 46.61291292 20.45549599 44.91693141 18.78005981 43.21806335 C18.02522308 42.45669571 17.27038635 41.69532806 16.49267578 40.91088867 C15.49628586 39.90211922 15.49628586 39.90211922 14.47976685 38.87297058 C12.88082614 37.22804521 12.88082614 37.22804521 10.8125 36.3125 C10.83868408 37.49803467 10.86486816 38.68356934 10.8918457 39.9050293 C10.98249021 44.31238866 11.03980088 48.719666 11.0871582 53.12768555 C11.11226999 55.03375107 11.14636645 56.93972059 11.18969727 58.84545898 C11.25049744 61.58861998 11.27874245 64.33050586 11.30078125 67.07421875 C11.32658768 67.92336349 11.3523941 68.77250824 11.37898254 69.64738464 C11.38106677 74.06496458 11.25645708 75.756078 8.40698242 79.32739258 C4.33167709 82.44551694 1.97479066 82.74998226 -3.1875 82.3125 C-5.94079021 80.51687595 -7.71377461 79.25995078 -9.1875 76.3125 C-9.30511176 74.12355228 -9.35734058 71.93099776 -9.38037109 69.73901367 C-9.38854858 69.06400314 -9.39672607 68.38899261 -9.40515137 67.69352722 C-9.42999823 65.45585009 -9.44651971 63.21823639 -9.4609375 60.98046875 C-9.46626118 60.21626429 -9.47158485 59.45205982 -9.47706985 58.66469765 C-9.50379881 54.61949288 -9.52317417 50.57431894 -9.53759766 46.52905273 C-9.55424222 42.35238332 -9.59901792 38.17650351 -9.6499691 34.00013256 C-9.68363885 30.78732913 -9.69517469 27.57471316 -9.70082474 24.36174965 C-9.70753843 22.82234986 -9.72276385 21.28296245 -9.74671555 19.74373436 C-9.77836677 17.58656014 -9.77840565 15.43151574 -9.77099609 13.27416992 C-9.77908295 12.04776291 -9.7871698 10.8213559 -9.79550171 9.55778503 C-9.02158457 5.42690569 -7.34948138 3.97548555 -4.1875 1.3125 C-3.1875 0.3125 -3.1875 0.3125 0 0 Z " fill="#FCFCFC" transform="translate(1094.1875,856.6875)"/>
<path d="M0 0 C0.8380719 -0.01929062 1.6761438 -0.03858124 2.53961182 -0.05845642 C6.37190175 -0.11642494 10.20400916 -0.16547628 14.03662109 -0.19628906 C16.05404791 -0.21786148 18.07138132 -0.25195539 20.08837891 -0.29882812 C23.00563101 -0.36596554 25.92095061 -0.39330972 28.83886719 -0.41235352 C29.73389954 -0.44018417 30.62893188 -0.46801483 31.55108643 -0.49668884 C37.26707722 -0.47804606 40.33929347 0.64991276 44.56976318 4.52134705 C46.44388415 7.04422852 46.66290114 9.23119643 46.39746094 12.31030273 C45.43370768 15.496589 43.35122019 17.17402623 40.82324219 19.20874023 C40.32824219 19.70374023 40.32824219 19.70374023 39.82324219 20.20874023 C37.20297418 20.31964398 34.60467622 20.37039655 31.98339844 20.38452148 C30.34601623 20.40775066 28.70864644 20.43186917 27.07128906 20.45678711 C24.49104895 20.4916717 21.91125595 20.52110614 19.33081055 20.53466797 C3.83492471 20.3948886 3.83492471 20.3948886 -9.64941406 27.27905273 C-10.1740625 27.95709961 -10.69871094 28.63514648 -11.23925781 29.33374023 C-11.78710938 30.01694336 -12.33496094 30.70014648 -12.89941406 31.40405273 C-16.11689319 35.94984893 -15.6267384 40.80897319 -15.17675781 46.20874023 C-13.88680988 49.62848942 -13.88680988 49.62848942 -12.17675781 52.20874023 C-11.84675781 53.19874023 -11.51675781 54.18874023 -11.17675781 55.20874023 C-9.42808298 56.29305117 -9.42808298 56.29305117 -7.17675781 57.20874023 C-5.72269531 57.98217773 -5.72269531 57.98217773 -4.23925781 58.77124023 C0.1817189 60.84639257 4.27872533 61.32680095 9.12402344 61.52514648 C10.5887207 61.58798828 10.5887207 61.58798828 12.08300781 61.65209961 C13.09041016 61.69141602 14.0978125 61.73073242 15.13574219 61.77124023 C16.67584961 61.83601562 16.67584961 61.83601562 18.24707031 61.90209961 C20.77233788 62.00780848 23.29769781 62.10990491 25.82324219 62.20874023 C25.71882813 60.4549707 25.71882813 60.4549707 25.61230469 58.66577148 C25.55600943 57.11765203 25.50141116 55.56947021 25.44824219 54.02124023 C25.39796875 53.25231445 25.34769531 52.48338867 25.29589844 51.69116211 C25.15226969 46.11357922 25.15226969 46.11357922 27.04272461 43.56420898 C29.73945156 41.18561851 32.24648063 39.50901207 35.88574219 39.58374023 C40.55276524 40.32453754 41.94727976 41.54842442 44.82324219 45.20874023 C47.09748937 49.7572346 46.00826754 56.08990846 46.01074219 61.08374023 C46.02298828 62.37666992 46.03523438 63.66959961 46.04785156 65.00170898 C46.04978516 66.24307617 46.05171875 67.48444336 46.05371094 68.76342773 C46.05781982 69.90279785 46.06192871 71.04216797 46.06616211 72.21606445 C45.82166208 75.22820652 45.58838474 76.78195971 43.82324219 79.20874023 C39.39037455 82.97366344 34.81101099 82.66071335 29.28027344 82.64233398 C27.89481575 82.65019676 27.89481575 82.65019676 26.48136902 82.65821838 C24.52884931 82.66463102 22.57629092 82.66331141 20.6237793 82.65478516 C17.66285728 82.64631778 14.70389358 82.67497782 11.74316406 82.70678711 C9.83886776 82.70840057 7.93456808 82.70781882 6.03027344 82.70483398 C5.15699905 82.71606796 4.28372467 82.72730194 3.38398743 82.73887634 C-8.41288827 82.60775537 -18.39004245 76.79481805 -26.92675781 68.95874023 C-34.89537758 60.62034693 -37.59670416 49.88680639 -37.5402832 38.67944336 C-37.26147627 27.17029336 -32.10793277 19.45406641 -24.33300781 11.26733398 C-17.95199226 5.21321472 -8.9479447 0.19299033 0 0 Z " fill="#FDFDFD" transform="translate(1033.1767578125,856.791259765625)"/>
<path d="M0 0 C8.67315884 4.79867395 12.31591259 11.70312687 15.859375 20.58203125 C17.74527797 27.51690228 14.05719741 34.5362754 10.859375 40.58203125 C6.47599513 47.49297042 0.70511719 51.33891392 -7.140625 53.58203125 C-16.10653539 54.87596212 -22.90046368 53.16090955 -30.296875 48.109375 C-37.7172104 42.25340136 -41.42044148 34.34349938 -42.578125 25.08203125 C-42.445606 17.9790127 -38.61843888 11.39295823 -34.01953125 6.17578125 C-23.03928098 -4.02424326 -13.88935619 -5.91236108 0 0 Z " fill="#454545" transform="translate(1037.140625,534.41796875)"/>
<path d="M0 0 C27.69083156 0 27.69083156 0 34.9453125 6.83203125 C36.56076647 8.81037705 37.79526456 10.75116051 39 13 C39.33644531 13.58265625 39.67289063 14.1653125 40.01953125 14.765625 C43.91426712 22.94634874 43.12650705 33.68911316 40.3125 42.0625 C37.35693767 49.00343731 33.8543063 53.00500873 26.96484375 56.23828125 C17.8421121 59.77492672 11.25781154 58 0 58 C0 38.86 0 19.72 0 0 Z " fill="#494949" transform="translate(956,982)"/>
<path d="M0 0 C3.5386994 1.65139305 4.81070153 2.71605229 7 6 C7.27415466 8.98458862 7.27415466 8.98458862 7.30639648 12.68701172 C7.31888176 13.69974655 7.31888176 13.69974655 7.33161926 14.73294067 C7.35571757 16.96524826 7.36449105 19.19726363 7.37109375 21.4296875 C7.3800604 22.98283984 7.38918225 24.53599129 7.39845276 26.08914185 C7.41494494 29.34574482 7.42264324 32.60224496 7.42553711 35.85888672 C7.43092059 40.02773195 7.46859677 44.19560803 7.51428127 48.36417961 C7.54405513 51.57271841 7.55126072 54.78102394 7.55226326 57.98968887 C7.55646516 59.52628136 7.56889846 61.06287457 7.58978081 62.5993309 C7.61670449 64.75167392 7.61186987 66.90177259 7.59936523 69.05419922 C7.60443588 70.27759003 7.60950653 71.50098083 7.61473083 72.76144409 C6.82904604 76.90062826 5.206051 78.36285446 2 81 C-1.295643 82.6478215 -4.46350201 82.74593953 -8 82 C-10.90815395 80.23139277 -12.49515815 78.03005988 -14 75 C-14.90273682 69.81517074 -14.8703483 64.67658423 -14.83203125 59.43359375 C-14.83862145 57.91096735 -14.84684228 56.38834722 -14.85661316 54.86573792 C-14.86992939 51.6839761 -14.86118887 48.50322476 -14.8371582 45.3215332 C-14.80854065 41.25315585 -14.83867692 37.18767052 -14.88579273 33.11955166 C-14.91504086 29.97858326 -14.91123895 26.83830205 -14.89777184 23.69725227 C-14.89562525 22.19779258 -14.90406412 20.69827742 -14.92350197 19.19894218 C-15.04854041 7.59426306 -15.04854041 7.59426306 -12.50912476 3.73318481 C-8.55290427 0.15536087 -5.4120933 -0.90201555 0 0 Z " fill="#FDFDFD" transform="translate(983,857)"/>
<path d="M0 0 C29.7 0 29.7 0 36.6875 6.5 C38.84245133 12.24653689 39.12390316 18.26917355 37.33984375 24.19140625 C34.97065528 28.94003943 31.58472669 30.79580447 27 33 C28.28559291 36.39576437 29.75752364 39.48341574 31.6015625 42.609375 C32.33632812 43.86427734 32.33632812 43.86427734 33.0859375 45.14453125 C33.84777344 46.43423828 33.84777344 46.43423828 34.625 47.75 C35.63992623 49.47283728 36.65305152 51.19673722 37.6640625 52.921875 C38.11217285 53.68081055 38.5602832 54.43974609 39.02197266 55.22167969 C40 57 40 57 40 58 C37.03 58 34.06 58 31 58 C30.66379639 57.30849854 30.32759277 56.61699707 29.98120117 55.90454102 C28.42568561 52.76736899 26.8081634 49.66648244 25.1875 46.5625 C24.65962891 45.47388672 24.13175781 44.38527344 23.58789062 43.26367188 C23.03681641 42.22919922 22.48574219 41.19472656 21.91796875 40.12890625 C21.43094482 39.17056885 20.9439209 38.21223145 20.44213867 37.22485352 C17.18750594 33.81008895 17.18750594 33.81008895 7 34 C7 41.92 7 49.84 7 58 C4.69 58 2.38 58 0 58 C0 38.86 0 19.72 0 0 Z " fill="#F9F9F9" transform="translate(1196,982)"/>
<path d="M0 0 C2.97 0 5.94 0 9 0 C9.39791748 1.16869629 9.79583496 2.33739258 10.20581055 3.54150391 C11.70509423 7.9440403 13.20575003 12.34610802 14.70678711 16.74804688 C15.35200895 18.64082611 15.9968756 20.53372648 16.64135742 22.42675781 C17.57633932 25.17285849 18.51250084 27.91855354 19.44921875 30.6640625 C19.75334686 31.55651672 20.05747498 32.44897095 20.37081909 33.36846924 C21.74082313 37.37540157 23.12477344 41.37500061 24.57275391 45.35449219 C24.92669975 46.32773941 24.92669975 46.32773941 25.28779602 47.32064819 C25.90791456 49.01429191 26.53531184 50.70526574 27.16333008 52.39599609 C28 55 28 55 28 58 C25.36 58 22.72 58 20 58 C19.16320723 55.37605694 18.33043058 52.75095616 17.5 50.125 C17.26152344 49.37863281 17.02304688 48.63226562 16.77734375 47.86328125 C15 42.2265625 15 42.2265625 15 40 C4.605 40.495 4.605 40.495 -6 41 C-7.60390487 46.21952809 -7.60390487 46.21952809 -9.20092773 51.44116211 C-10.88888889 56.88888889 -10.88888889 56.88888889 -12 58 C-14.33297433 58.04092937 -16.66705225 58.04241723 -19 58 C-18.31720484 52.67633986 -16.73100819 47.87602526 -14.98046875 42.83203125 C-14.53070427 41.51884163 -14.53070427 41.51884163 -14.07185364 40.17912292 C-13.11479738 37.38871631 -12.15113227 34.60064154 -11.1875 31.8125 C-10.55102285 29.95782275 -9.91495122 28.10300629 -9.27929688 26.24804688 C-6.26546354 17.46895189 -3.21574993 8.70763521 0 0 Z " fill="#F7F7F7" transform="translate(1069,982)"/>
<path d="M0 0 C27.69083156 0 27.69083156 0 34.9453125 6.83203125 C36.56076647 8.81037705 37.79526456 10.75116051 39 13 C39.33644531 13.58265625 39.67289063 14.1653125 40.01953125 14.765625 C43.91426712 22.94634874 43.12650705 33.68911316 40.3125 42.0625 C37.35693767 49.00343731 33.8543063 53.00500873 26.96484375 56.23828125 C17.8421121 59.77492672 11.25781154 58 0 58 C0 38.86 0 19.72 0 0 Z M7 6 C7 21.18 7 36.36 7 52 C18.70333984 52.56130546 18.70333984 52.56130546 28.52734375 47.67578125 C34.74777424 40.80626236 34.51507013 32.77173765 34.31640625 24.08984375 C33.98024274 17.87714816 32.08085277 14.08085277 27.625 9.625 C20.3919895 5.14742207 16.337054 6 7 6 Z " fill="#F8F8F8" transform="translate(956,982)"/>
<path d="M0 0 C11.22 0 22.44 0 34 0 C34 1.98 34 3.96 34 6 C25.09 6 16.18 6 7 6 C7 12.27 7 18.54 7 25 C14.59 25 22.18 25 30 25 C30 26.98 30 28.96 30 31 C22.74 31 15.48 31 8 31 C8 37.93 8 44.86 8 52 C16.58 52 25.16 52 34 52 C34 53.98 34 55.96 34 58 C22.78 58 11.56 58 0 58 C0 38.86 0 19.72 0 0 Z " fill="#F6F6F6" transform="translate(863,982)"/>
<path d="M0 0 C3.25967985 1.71752119 4.40417677 2.54376516 6.5 5.6875 C5.51 7.0075 4.52 8.3275 3.5 9.6875 C2.943125 9.39875 2.38625 9.11 1.8125 8.8125 C1.049375 8.44125 0.28625 8.07 -0.5 7.6875 C-1.20125 7.31625 -1.9025 6.945 -2.625 6.5625 C-6.94775601 5.2468786 -11.02943865 4.97777095 -15.5 5.6875 C-18.81830353 7.5865956 -18.81830353 7.5865956 -20.5 10.6875 C-20.82908167 13.79677047 -20.82908167 13.79677047 -19.5 16.6875 C-15.61010231 20.3942575 -11.46618761 22.07968667 -6.5625 24 C0.45771054 26.89123392 4.96564195 29.6187839 8.5 36.6875 C9.03492748 42.89265874 8.36297513 47.63763976 4.5 52.6875 C2.22977462 54.44199489 0.13672419 55.46679435 -2.5 56.6875 C-3.49 57.1825 -3.49 57.1825 -4.5 57.6875 C-13.4220739 58.52694244 -21.12922401 58.19024043 -28.5 52.6875 C-30.26953125 50.515625 -30.26953125 50.515625 -31.5 48.6875 C-30.18 47.3675 -28.86 46.0475 -27.5 44.6875 C-25.5139019 45.66297296 -23.55875322 46.65367987 -21.640625 47.7578125 C-16.63385965 50.55084276 -13.22830687 51.33424432 -7.5 50.6875 C-3.70218809 49.15336587 -3.70218809 49.15336587 -0.5 46.6875 C-0.18437447 44.69141573 -0.18437447 44.69141573 -0.125 42.375 C-0.07601563 41.59511719 -0.02703125 40.81523438 0.0234375 40.01171875 C-0.77134886 36.48263004 -2.49618991 35.63412498 -5.5 33.6875 C-9.01814759 31.92306998 -12.6336173 30.38595595 -16.26171875 28.86328125 C-21.40740686 26.57732069 -24.27623241 24.3371648 -27.5 19.6875 C-28.74350856 15.95697433 -29.02198871 12.56197957 -28.5 8.6875 C-22.85600948 -2.60048104 -10.84531514 -5.24163998 0 0 Z " fill="#F7F7F7" transform="translate(1037.5,983.3125)"/>
<path d="M0 0 C3.22902895 1.72042662 4.35533616 2.56425424 6.4375 5.6875 C5.4475 7.0075 4.4575 8.3275 3.4375 9.6875 C2.880625 9.39875 2.32375 9.11 1.75 8.8125 C-4.47878694 5.78227933 -9.63267665 4.83459866 -16.5625 5.6875 C-19.3838337 7.08837749 -19.3838337 7.08837749 -20.5625 9.6875 C-21.22916667 12.6875 -21.22916667 12.6875 -20.5625 15.6875 C-17.35606217 19.79498744 -13.44195875 21.20964517 -8.75 23.0625 C-1.93077597 25.90575929 3.95069094 28.47073682 7.875 35.125 C8.88469797 39.72473519 8.91663915 43.35655792 7.3125 47.8125 C4.05980531 52.79996519 0.05580137 55.83647763 -5.5625 57.6875 C-14.12614368 58.75374659 -21.49234809 57.87409793 -28.5625 52.6875 C-30.3359375 50.515625 -30.3359375 50.515625 -31.5625 48.6875 C-30.5725 47.3675 -29.5825 46.0475 -28.5625 44.6875 C-26.21354033 45.56835988 -23.94838117 46.46771551 -21.765625 47.7109375 C-16.66953354 50.58513308 -12.40401502 51.6332691 -6.5625 50.6875 C-2.79851432 48.9755813 -2.79851432 48.9755813 -0.5625 45.6875 C-0.05603454 41.61713569 -0.05603454 41.61713569 -0.5625 37.6875 C-4.06674754 34.20935486 -7.80924322 32.62176693 -12.375 30.875 C-18.31982745 28.47916057 -23.38825525 25.65569332 -27.5625 20.6875 C-29.02432032 16.30203905 -29.29129989 12.26158696 -28.5625 7.6875 C-22.70716276 -3.23300786 -10.55920879 -5.0580291 0 0 Z " fill="#F7F7F7" transform="translate(843.5625,983.3125)"/>
<path d="M0 0 C10.89 0 21.78 0 33 0 C33 1.98 33 3.96 33 6 C24.42 6 15.84 6 7 6 C7 12.27 7 18.54 7 25 C14.26 25 21.52 25 29 25 C29 26.98 29 28.96 29 31 C21.74 31 14.48 31 7 31 C7 37.93 7 44.86 7 52 C15.91 52 24.82 52 34 52 C34 53.98 34 55.96 34 58 C22.78 58 11.56 58 0 58 C0 38.86 0 19.72 0 0 Z " fill="#FAFAFA" transform="translate(1150,982)"/>
<path d="M0 0 C10.89 0 21.78 0 33 0 C33 1.98 33 3.96 33 6 C24.42 6 15.84 6 7 6 C7 12.27 7 18.54 7 25 C14.26 25 21.52 25 29 25 C29 26.98 29 28.96 29 31 C21.74 31 14.48 31 7 31 C7 37.93 7 44.86 7 52 C15.91 52 24.82 52 34 52 C34 53.98 34 55.96 34 58 C22.78 58 11.56 58 0 58 C0 38.86 0 19.72 0 0 Z " fill="#FBFBFB" transform="translate(910,982)"/>
<path d="M0 0 C2.64 0 5.28 0 8 0 C10.63598991 6.63404149 12.56908318 13.36461473 14.4375 20.25 C16.46545641 27.71470247 18.62597071 35.05508055 21.25024414 42.33496094 C22.00738761 45.02625958 22.14325689 47.22050148 22 50 C22.66 50 23.32 50 24 50 C24.12528076 48.99026123 24.25056152 47.98052246 24.37963867 46.94018555 C24.97651284 43.14917721 25.85052208 39.63802432 26.92578125 35.95703125 C27.11464401 35.30731857 27.30350677 34.6576059 27.49809265 33.98820496 C27.89677582 32.62030025 28.29775437 31.25306263 28.70092773 29.88647461 C29.30537513 27.83666197 29.90232654 25.78478564 30.49804688 23.73242188 C32.82357066 15.76141397 35.30395256 7.85458991 38 0 C40.31 0 42.62 0 45 0 C43.75082085 7.01155962 41.98297265 13.69364028 39.77734375 20.4609375 C39.47180069 21.41392731 39.16625763 22.36691711 38.85145569 23.3487854 C37.88525723 26.3591995 36.91170168 29.3671674 35.9375 32.375 C34.961206 35.40471197 33.98645241 38.43491225 33.01283264 41.46548462 C32.40927098 43.34253356 31.80390671 45.21900408 31.19651794 47.09481812 C30.92275833 47.94315216 30.64899872 48.79148621 30.36694336 49.66552734 C30.12648788 50.40813812 29.88603241 51.1507489 29.63829041 51.91586304 C29.02325258 53.92407601 28.50939358 55.96242569 28 58 C25.03 58 22.06 58 19 58 C15.22931572 50.31897647 12.97971079 42.4145694 10.64111328 34.21972656 C7.76127331 24.2488564 4.5203549 14.42729724 0.91796875 4.6953125 C0 2 0 2 0 0 Z " fill="#F7F7F7" transform="translate(1096,982)"/>
<path d="M0 0 C2.51625 -0.061875 5.0325 -0.12375 7.625 -0.1875 C8.79603271 -0.22846802 8.79603271 -0.22846802 9.99072266 -0.27026367 C14.71841279 -0.32607418 17.91835974 0.37083533 22 3 C24.48133339 6.72200009 24.52296148 9.68978518 24 14 C22.64717403 17.58100993 21.40536168 18.73876692 18.1875 20.8125 C12.4769273 23.01267736 5.97977579 22.17085074 0 22 C0 14.74 0 7.48 0 0 Z " fill="#4B4B4B" transform="translate(1203,988)"/>
<path d="M0 0 C2.35324359 3.52986538 3.35131869 7.09399954 4.5 11.125 C4.72067139 11.88675537 4.94134277 12.64851074 5.16870117 13.43334961 C6.64453243 18.58749103 7.94819099 23.74095494 9 29 C3.39 29 -2.22 29 -8 29 C-7.25335074 23.7734552 -6.29182781 19.39051888 -4.5625 14.5 C-2.89479961 9.69979414 -1.35671006 4.89677676 0 0 Z " fill="#505050" transform="translate(1073,988)"/>
</svg>
