<?xml version="1.0" encoding="UTF-8"?>
<svg version="1.1" xmlns="http://www.w3.org/2000/svg" width="1290" height="550">
<path d="M0 0 C1.07894531 0.38414063 2.15789062 0.76828125 3.26953125 1.1640625 C14.37707388 5.54261014 24.42383663 11.95162143 34.65820312 18.03076172 C39.77965775 21.04870831 44.9429926 23.99262456 50.109375 26.93270874 C53.06897811 28.61697541 56.02670639 30.30452667 58.984375 31.9921875 C59.56956909 32.32604965 60.15476318 32.6599118 60.75769043 33.00389099 C70.11650348 38.3463133 79.4429625 43.74502091 88.7734375 49.13671875 C92.03524007 51.0203505 95.29861844 52.90122321 98.5625 54.78125 C103.97643471 57.89974072 109.38720753 61.02365936 114.79638672 64.15039062 C116.9400934 65.38806185 119.08496052 66.62372523 121.23095703 67.85742188 C154.88255248 87.20389044 154.88255248 87.20389044 169 101 C169.98033203 101.90492187 169.98033203 101.90492187 170.98046875 102.828125 C191.96796107 122.61495986 205.41229019 154.59373936 206.351385 183.22029734 C206.4151869 186.91002217 206.41571029 190.59793863 206.40405273 194.28808594 C206.40977336 195.95255995 206.41674406 197.61703004 206.42485046 199.28149414 C206.44261332 203.75287913 206.44164532 208.22406608 206.43590808 212.69547558 C206.43279059 216.45222353 206.43893704 220.20893481 206.44494683 223.9656775 C206.45893601 232.84205897 206.45747863 241.71834408 206.44604492 250.59472656 C206.434578 259.69700241 206.44862829 268.79898311 206.4754414 277.90122008 C206.49772616 285.76592995 206.50420697 293.63054804 206.49836498 301.49528718 C206.4950235 306.17051155 206.4972201 310.84554705 206.51461601 315.52074432 C206.64237135 353.48826009 206.64237135 353.48826009 202 369 C201.66421086 370.12870136 201.66421086 370.12870136 201.32163811 371.28020477 C194.98615224 392.14147966 183.90248083 409.18292649 169 425 C168.38898438 425.67546875 167.77796875 426.3509375 167.1484375 427.046875 C155.27492398 439.67827236 139.35189092 447.60061739 124.45214844 456.04003906 C118.91038132 459.18638322 113.3930888 462.37487021 107.875 465.5625 C106.79831055 466.18342529 105.72162109 466.80435059 104.61230469 467.4440918 C97.39556719 471.60788655 90.19379439 475.79671118 83 480 C73.64244903 485.46755818 64.26672077 490.90271327 54.87353516 496.30883789 C49.28696499 499.52414511 43.70732378 502.75038822 38.140625 506 C3.52535707 526.17755707 -32.57271617 541.3520136 -73.41162109 531.41308594 C-91.28080259 526.6887728 -106.55197174 519.31803993 -122.3828125 509.9140625 C-128.62272642 506.20742305 -134.9147148 502.59731552 -141.22363281 499.01016235 C-151.54206572 493.14240453 -161.82097237 487.21020463 -172.06689453 481.21655273 C-179.32212036 476.97382546 -186.59380302 472.76049118 -193.875 468.5625 C-194.94741943 467.94342773 -196.01983887 467.32435547 -197.12475586 466.68652344 C-202.70641936 463.46644543 -208.29508684 460.2593791 -213.89453125 457.0703125 C-231.0037915 447.30893933 -247.0510637 438.02338026 -261 424 C-261.88429688 423.11570312 -262.76859375 422.23140625 -263.6796875 421.3203125 C-286.83110807 397.01492704 -297.50877107 364.86004763 -297.40405273 331.71191406 C-297.40977336 330.04744005 -297.41674406 328.38296996 -297.42485046 326.71850586 C-297.44261332 322.24712087 -297.44164532 317.77593392 -297.43590808 313.30452442 C-297.43279059 309.54777647 -297.43893704 305.79106519 -297.44494683 302.0343225 C-297.45893601 293.15794103 -297.45747863 284.28165592 -297.44604492 275.40527344 C-297.434578 266.30299759 -297.44862829 257.20101689 -297.4754414 248.09877992 C-297.49772616 240.23407005 -297.50420697 232.36945196 -297.49836498 224.50471282 C-297.4950235 219.82948845 -297.4972201 215.15445295 -297.51461601 210.47925568 C-297.64237229 172.51145845 -297.64237229 172.51145845 -293 157 C-292.77609526 156.24748711 -292.55219051 155.49497421 -292.32150078 154.7196579 C-285.88426783 133.52559965 -274.45978359 115.76720767 -259 100 C-258.53609863 99.52530273 -258.07219727 99.05060547 -257.59423828 98.56152344 C-249.58234261 90.49106535 -240.79268502 84.68533566 -231 79 C-230.05286133 78.44828125 -229.10572266 77.8965625 -228.12988281 77.328125 C-222.66978666 74.15385109 -217.19798767 71.00047953 -211.71875 67.859375 C-205.46085362 64.27060435 -199.22688404 60.6422469 -193 57 C-181.45305661 50.25239171 -169.87097508 43.56660415 -158.28222656 36.89111328 C-153.93468196 34.38619804 -149.58851647 31.87889855 -145.24291992 29.37060547 C-143.08762364 28.12737125 -140.93154042 26.88550027 -138.7746582 25.64501953 C-133.78320893 22.77240032 -128.79961825 19.88878089 -123.84281921 16.95666504 C-100.09933583 2.91171392 -100.09933583 2.91171392 -88 -1 C-87.32179199 -1.22333008 -86.64358398 -1.44666016 -85.94482422 -1.67675781 C-57.25404526 -11.02275159 -28.2905306 -10.14793328 0 0 Z M-114.72265625 46.06298828 C-119.81830738 49.07467601 -124.96065403 52.00391353 -130.10534668 54.93069458 C-133.06645314 56.61535112 -136.02543195 58.30373484 -138.984375 59.9921875 C-139.56954895 60.32603958 -140.1547229 60.65989166 -140.75762939 61.00386047 C-150.11647199 66.3462767 -159.44294293 71.7450096 -168.7734375 77.13671875 C-173.13054499 79.6528692 -177.49060418 82.16388321 -181.85058594 84.67504883 C-185.09465489 86.54500835 -188.33658448 88.41863033 -191.578125 90.29296875 C-195.89359527 92.78797327 -200.21745918 95.26756412 -204.546875 97.73828125 C-232.96254925 114.01759806 -254.839186 132.30200045 -264.19140625 164.9765625 C-264.59166016 166.47316406 -264.59166016 166.47316406 -265 168 C-265.21527344 168.79148438 -265.43054688 169.58296875 -265.65234375 170.3984375 C-268.32689297 181.21376794 -268.14662791 192.47427795 -268.12939453 203.54248047 C-268.13075323 204.95994105 -268.13253577 206.37740127 -268.13470459 207.79486084 C-268.13922409 211.60902715 -268.13751192 215.4231661 -268.1343255 219.23733282 C-268.13177234 223.25328482 -268.1341477 227.26923466 -268.13571167 231.28518677 C-268.13752521 238.02818212 -268.13514894 244.77116648 -268.13037109 251.51416016 C-268.12493448 259.2758017 -268.12669007 267.03741694 -268.1321975 274.79905784 C-268.13675721 281.49670537 -268.13736513 288.19434506 -268.13475883 294.89199364 C-268.13321115 298.87731934 -268.13296034 302.86263274 -268.13629532 306.84795761 C-268.13921566 310.59911815 -268.1371231 314.3502453 -268.13140106 318.10140228 C-268.12947978 320.10962378 -268.13239196 322.11784815 -268.13552856 324.12606812 C-268.06250789 355.98707613 -260.33146562 382.59150283 -237.4609375 405.578125 C-224.75731852 417.94207503 -208.45465401 426.07151223 -193.1015625 434.59375 C-188.21528039 437.31051685 -183.36980099 440.0836534 -178.5625 442.9375 C-168.22590677 449.07063028 -157.80184542 455.05119338 -147.38623047 461.04882812 C-143.03169082 463.55794715 -138.68030556 466.07250451 -134.32910156 468.58740234 C-131.11318486 470.44432224 -127.89460891 472.29656904 -124.67578125 474.1484375 C-120.61726516 476.48466497 -116.56762593 478.83503283 -112.5266571 481.20140076 C-94.45565243 492.07401009 -94.45565243 492.07401009 -75 500 C-73.74832031 500.40476562 -72.49664062 500.80953125 -71.20703125 501.2265625 C-54.81085363 506.05587355 -35.31168701 506.18019636 -19 501 C-17.78183594 500.62101562 -16.56367188 500.24203125 -15.30859375 499.8515625 C-3.80594417 496.01590074 6.54761905 490.05780052 17 484 C17.9178125 483.46842285 18.835625 482.9368457 19.78125 482.38916016 C24.72884234 479.51694008 29.66673506 476.62845789 34.6015625 473.734375 C41.33166517 469.79510772 48.10022137 465.92417985 54.875 462.0625 C75.44816004 450.3303092 95.96848872 438.50604586 116.39697266 426.5234375 C118.75409604 425.14391678 121.11649799 423.77398746 123.48046875 422.40625 C148.29922507 407.94523626 164.76515305 388.39522487 173.3125 361.0625 C177.89033465 343.04579669 177.29965995 324.63100614 177.26865101 306.18549466 C177.26351879 302.16743797 177.26830229 298.14938954 177.27142334 294.1313324 C177.27504268 287.38791235 177.27031814 280.64453637 177.26074219 273.90112305 C177.24986602 266.1536307 177.2533854 258.40624373 177.264395 250.65875393 C177.27353159 243.95584079 177.27472217 237.25295899 177.26951766 230.55004162 C177.26643211 226.56912098 177.26589265 222.58824952 177.27259064 218.60733223 C177.32237793 184.20698751 175.83936242 151.47240008 151 125 C150.25492187 124.1646875 149.50984375 123.329375 148.7421875 122.46875 C136.20443757 109.0620471 119.14509553 100.96339854 103.3449707 92.03469849 C97.53111107 88.74461782 91.76224964 85.3795759 86 82 C73.80697836 74.8611759 61.53933845 67.85559938 49.26367188 60.86035156 C45.38670414 58.65041035 41.51184926 56.43679315 37.63769531 54.22192383 C35.93688294 53.24977766 34.23571765 52.27824866 32.53417969 51.30737305 C28.19306152 48.82981917 23.85813426 46.34218435 19.53125 43.83984375 C-1.27359555 31.71261273 -1.27359555 31.71261273 -24 24 C-24.9384375 23.77441406 -25.876875 23.54882812 -26.84375 23.31640625 C-60.03142265 16.55768078 -87.00516345 29.53681487 -114.72265625 46.06298828 Z " fill="#242539" transform="translate(301,11)"/>
<path d="M0 0 C0 30.36 0 60.72 0 92 C-9.00948849 95.37855819 -9.00948849 95.37855819 -12.39453125 96.16796875 C-13.12220703 96.33876953 -13.84988281 96.50957031 -14.59960938 96.68554688 C-15.32986328 96.85119141 -16.06011719 97.01683594 -16.8125 97.1875 C-17.56208984 97.36474609 -18.31167969 97.54199219 -19.08398438 97.72460938 C-22.11816684 98.42689111 -24.87519383 99 -28 99 C-28.28496338 98.4644751 -28.56992676 97.9289502 -28.86352539 97.37719727 C-37.10430155 81.94713864 -45.8946237 66.93206772 -55 52 C-59.48045222 52.77699283 -62.71359266 54.31953064 -66.6875 56.5625 C-72.79476861 60 -72.79476861 60 -75 60 C-73.61985961 67.2178771 -70.61680022 72.98278602 -67.0625 79.375 C-66.48999512 80.42268555 -65.91749023 81.47037109 -65.32763672 82.54980469 C-61.20636946 90.02336966 -56.86154072 97.33919996 -52.16430664 104.46630859 C-48.96357294 109.46295332 -48.96357294 109.46295332 -49.13208008 111.94726562 C-50.28941301 114.68449637 -51.91327909 116.25076275 -54.03515625 118.328125 C-54.84404297 119.12734375 -55.65292969 119.9265625 -56.48632812 120.75 C-57.33646484 121.575 -58.18660156 122.4 -59.0625 123.25 C-60.34350586 124.51070312 -60.34350586 124.51070312 -61.65039062 125.796875 C-63.76035412 127.87147597 -65.87699708 129.93875832 -68 132 C-79.05450498 126.29559198 -89.78937459 120.09313477 -100.515625 113.796875 C-107.1758004 109.88843569 -113.86784309 106.0364783 -120.5625 102.1875 C-129.76868837 96.88925855 -138.92760645 91.52427924 -148 86 C-143.95429788 74.48952708 -133.83386934 65.32661605 -125.3125 56.9375 C-124.78498138 56.41430176 -124.25746277 55.89110352 -123.71395874 55.35205078 C-91.44470054 23.39221128 -46.14204484 0 0 0 Z " fill="#242539" transform="translate(243,81)"/>
<path d="M0 0 C4.471315 3.60686076 5.94508997 8.08362304 7.875 13.3125 C8.21869629 14.23385742 8.56239258 15.15521484 8.91650391 16.10449219 C11.38381329 22.90304585 13.50415061 29.7647471 15.375 36.75 C15.61331543 37.62180908 15.85163086 38.49361816 16.09716797 39.3918457 C19.69080016 53.50041974 20.35444614 67.82743771 20.25 82.3125 C20.24723053 83.07147583 20.24446106 83.83045166 20.24160767 84.61242676 C20.1909292 96.49769609 19.78085207 108.23089065 18 120 C17.82855469 121.216875 17.65710938 122.43375 17.48046875 123.6875 C16.09877545 131.8172051 13.6808456 139.54720348 11.125 147.375 C10.79741699 148.38594727 10.46983398 149.39689453 10.13232422 150.43847656 C8.07489746 156.53135443 5.89168387 162.80445665 2 168 C-1 169 -1 169 -3.39404297 168.01879883 C-4.33393066 167.50341553 -5.27381836 166.98803223 -6.2421875 166.45703125 C-7.82483398 165.59766968 -7.82483398 165.59766968 -9.43945312 164.72094727 C-10.57318359 164.09115967 -11.70691406 163.46137207 -12.875 162.8125 C-14.05889459 162.16334204 -15.24314345 161.51482976 -16.42773438 160.86694336 C-26.06675565 155.57924467 -35.62917873 150.15699176 -45.14404297 144.64941406 C-47.80641405 143.11180259 -50.47289283 141.58153462 -53.1411438 140.05415344 C-55.52964879 138.68664718 -57.91678696 137.31676628 -60.30371094 135.94650269 C-62.02590903 134.95849193 -63.74927044 133.97250984 -65.47265625 132.98657227 C-66.52453125 132.38127686 -67.57640625 131.77598145 -68.66015625 131.15234375 C-69.59480713 130.61601318 -70.52945801 130.07968262 -71.49243164 129.52709961 C-73.791108 128.12721444 -75.94070944 126.73315183 -78 125 C-79.52608902 116.7351134 -74.6021309 105.79760173 -72 98 C-71 97 -71 97 -68.75376892 96.87974548 C-67.76115555 96.88196609 -66.76854218 96.88418671 -65.74584961 96.88647461 C-64.62476303 96.88655014 -63.50367645 96.88662567 -62.34861755 96.88670349 C-60.51896202 96.89444542 -60.51896202 96.89444542 -58.65234375 96.90234375 C-56.7899984 96.90446617 -56.7899984 96.90446617 -54.89002991 96.90663147 C-51.58394509 96.91129409 -48.27792854 96.92028503 -44.97186279 96.93133545 C-41.6003885 96.94155173 -38.22890717 96.94612955 -34.85742188 96.95117188 C-28.23825982 96.96222605 -21.61913929 96.9795034 -15 97 C-15 89.08 -15 81.16 -15 73 C-33.48 73 -51.96 73 -71 73 C-73.22397772 67.81071866 -74.90080619 63.30872232 -76.25 57.9375 C-76.435625 57.25623047 -76.62125 56.57496094 -76.8125 55.87304688 C-77.90567841 51.56244564 -78.7325093 48.15350764 -77 44 C-74.09882002 41.5872548 -70.86851357 39.86145609 -67.5625 38.0625 C-66.58112061 37.50675293 -65.59974121 36.95100586 -64.58862305 36.37841797 C-62.48201924 35.18586317 -60.37092209 34.00121774 -58.25585938 32.82373047 C-55.05255034 31.02943544 -51.874832 29.19716159 -48.703125 27.34765625 C-12.63098658 6.31549329 -12.63098658 6.31549329 0 0 Z " fill="#242539" transform="translate(428,189)"/>
<path d="M0 0 C3.97510033 0.58913553 6.80697025 1.82045195 10.26171875 3.8515625 C11.28491211 4.44791504 12.30810547 5.04426758 13.36230469 5.65869141 C14.45961914 6.30757324 15.55693359 6.95645508 16.6875 7.625 C17.84624759 8.3033103 19.0054353 8.98086925 20.16503906 9.65771484 C22.57637168 11.06586562 24.98577349 12.47724269 27.39404297 13.890625 C31.91588468 16.54054842 36.46076197 19.15010997 41.00537109 21.76074219 C50.55467041 27.24745773 60.07587083 32.78060103 69.5625 38.375 C70.97354004 39.20572021 70.97354004 39.20572021 72.41308594 40.05322266 C73.26805664 40.55901855 74.12302734 41.06481445 75.00390625 41.5859375 C75.75486572 42.0298584 76.5058252 42.4737793 77.27954102 42.93115234 C79 44 79 44 80 45 C80.29718267 54.17020818 76.86604718 63.41154104 74 72 C73 73 73 73 70.75376892 73.12025452 C69.76115555 73.11803391 68.76854218 73.11581329 67.74584961 73.11352539 C66.62476303 73.11344986 65.50367645 73.11337433 64.34861755 73.11329651 C62.51896202 73.10555458 62.51896202 73.10555458 60.65234375 73.09765625 C59.41078018 73.0962413 58.16921661 73.09482635 56.89002991 73.09336853 C53.58394509 73.08870591 50.27792854 73.07971497 46.97186279 73.06866455 C43.6003885 73.05844827 40.22890717 73.05387045 36.85742188 73.04882812 C30.23825982 73.03777395 23.61913929 73.0204966 17 73 C17 80.92 17 88.84 17 97 C35.48 97 53.96 97 73 97 C76.38090071 104.88876831 76.38090071 104.88876831 77.16796875 108.0078125 C77.33876953 108.68457031 77.50957031 109.36132812 77.68554688 110.05859375 C77.85119141 110.74050781 78.01683594 111.42242187 78.1875 112.125 C78.36474609 112.81464844 78.54199219 113.50429688 78.72460938 114.21484375 C79.63229353 117.8806261 80.43198429 121.23357822 80 125 C78.47070312 126.5546875 78.47070312 126.5546875 76.28125 127.875 C75.45496094 128.3803125 74.62867188 128.885625 73.77734375 129.40625 C72.86082031 129.9321875 71.94429688 130.458125 71 131 C69.57880859 131.81984375 69.57880859 131.81984375 68.12890625 132.65625 C64.93403305 134.4654446 61.72029384 136.23647251 58.5 138 C56.70844212 138.98672207 54.91765219 139.97482838 53.12689209 140.96299744 C51.90436353 141.63749208 50.68158402 142.31153206 49.45855713 142.98512268 C44.26909463 145.84478002 39.10067566 148.74111514 33.93652344 151.64624023 C29.86518223 153.93488799 25.78640445 156.21008304 21.70703125 158.484375 C19.22506815 159.87398782 16.75252327 161.27900228 14.28125 162.6875 C12.93794988 163.43830547 11.59423927 164.18837728 10.25 164.9375 C8.58710937 165.87916016 8.58710937 165.87916016 6.890625 166.83984375 C4 168 4 168 1.32421875 168.1171875 C-2.18010607 166.43275574 -3.07365474 163.62822128 -4.4375 160.1875 C-4.73043945 159.48189941 -5.02337891 158.77629883 -5.32519531 158.04931641 C-14.1113653 136.22606246 -18.21998055 114.26827043 -18.1875 90.8125 C-18.18659363 89.61089233 -18.18659363 89.61089233 -18.18566895 88.38500977 C-18.15931726 75.50867604 -17.83863342 62.76544232 -16 50 C-15.88172852 49.17226074 -15.76345703 48.34452148 -15.64160156 47.49169922 C-13.08948519 30.68864294 -6.97067871 15.41289365 0 0 Z " fill="#242539" transform="translate(81,189)"/>
<path d="M0 0 C1.90125406 -0.01709907 3.80255316 -0.02923217 5.70385742 -0.03930664 C7.29202522 -0.05025108 7.29202522 -0.05025108 8.91227722 -0.06141663 C13.16868458 0.02324583 17.15997682 0.67123527 21.3125 1.5625 C22.57102783 1.82595215 22.57102783 1.82595215 23.85498047 2.09472656 C40.91410086 5.8257233 57.37874253 11.17527902 73 19 C73.72993164 19.36432129 74.45986328 19.72864258 75.21191406 20.10400391 C93.96680732 29.62906229 110.0626161 42.28698849 125 57 C126.2014613 58.16313407 127.40328274 59.32589624 128.60546875 60.48828125 C142.29820709 73.83060737 142.29820709 73.83060737 145.25 81.0625 C144.94468593 84.64994034 143.74557933 86.53837371 141.265625 89.11328125 C136.7341835 92.88687822 131.60749774 95.68902849 126.49267578 98.58496094 C123.70325473 100.16845598 120.92736617 101.77422048 118.15234375 103.3828125 C113.76238756 105.92599908 109.36763106 108.46056365 104.96875 110.98828125 C100.21140805 113.7232141 95.46226325 116.47163727 90.71875 119.23046875 C88.9470608 120.2591109 87.17518649 121.28743329 85.40322876 122.31561279 C83.72220007 123.29233827 82.04308554 124.27235582 80.36401367 125.25244141 C79.34025635 125.84589355 78.31649902 126.4393457 77.26171875 127.05078125 C76.36412842 127.57325439 75.46653809 128.09572754 74.54174805 128.6340332 C72.07786498 129.9581544 69.61635269 131.01706574 67 132 C67 131.34 67 130.68 67 130 C66.34 130 65.68 130 65 130 C63.58984375 128.56640625 63.58984375 128.56640625 61.9375 126.5625 C58.44512497 122.40561387 54.6289811 118.73966035 50.625 115.078125 C50.08875 114.39234375 49.5525 113.7065625 49 113 C49.43022468 109.64783271 50.96094007 107.04271882 52.625 104.140625 C53.1627002 103.19695068 53.70040039 102.25327637 54.25439453 101.28100586 C54.83044434 100.28077393 55.40649414 99.28054199 56 98.25 C57.18499771 96.17323521 58.36989303 94.09641199 59.5546875 92.01953125 C60.13959961 90.99811035 60.72451172 89.97668945 61.32714844 88.92431641 C63.60803971 84.93708412 65.87013806 80.93949384 68.125 76.9375 C68.47820312 76.31456055 68.83140625 75.69162109 69.1953125 75.04980469 C73.36485687 68.4042948 73.36485687 68.4042948 75 61 C72.26070622 59.45925893 69.50712161 57.94607142 66.75 56.4375 C65.97269531 55.99986328 65.19539063 55.56222656 64.39453125 55.11132812 C63.26337891 54.49741211 63.26337891 54.49741211 62.109375 53.87109375 C61.07248535 53.29766235 61.07248535 53.29766235 60.01464844 52.71264648 C57.48831238 51.81899949 56.42945462 51.87300042 54 53 C52.45982136 54.90094695 52.45982136 54.90094695 51.22265625 57.35546875 C50.71524902 58.27827637 50.2078418 59.20108398 49.68505859 60.15185547 C49.14961426 61.15361816 48.61416992 62.15538086 48.0625 63.1875 C46.91188496 65.27829603 45.75949062 67.3681137 44.60546875 69.45703125 C44.01427246 70.5342041 43.42307617 71.61137695 42.81396484 72.72119141 C39.90437894 77.98037562 36.90526413 83.18463293 33.875 88.375 C33.05914429 89.80042114 33.05914429 89.80042114 32.22680664 91.25463867 C31.71625732 92.12709229 31.20570801 92.9995459 30.6796875 93.8984375 C30.23351074 94.66849121 29.78733398 95.43854492 29.32763672 96.23193359 C28 98 28 98 25 99 C22.47216797 98.57861328 22.47216797 98.57861328 19.4921875 97.8203125 C18.42355469 97.55089844 17.35492188 97.28148437 16.25390625 97.00390625 C15.13886719 96.71386719 14.02382813 96.42382812 12.875 96.125 C11.75222656 95.84269531 10.62945312 95.56039062 9.47265625 95.26953125 C1.14475954 93.14475954 1.14475954 93.14475954 0 92 C-0.09522418 89.13908182 -0.12553326 86.30236379 -0.11352539 83.44116211 C-0.11367142 82.54368759 -0.11381744 81.64621307 -0.1139679 80.72154236 C-0.11326842 77.74011866 -0.10547441 74.7587566 -0.09765625 71.77734375 C-0.09579219 69.71611058 -0.09436823 67.65487696 -0.09336853 65.59364319 C-0.08954237 60.1569599 -0.07971126 54.72030314 -0.06866455 49.28363037 C-0.05845253 43.74052286 -0.05387136 38.19741108 -0.04882812 32.65429688 C-0.03808908 21.76951957 -0.02101149 10.88476198 0 0 Z " fill="#242539" transform="translate(268,81)"/>
<path d="M0 0 C2.19313571 0.72182978 4.05654705 1.47762427 6.06103516 2.60888672 C6.73320068 2.98456787 7.40536621 3.36024902 8.09790039 3.74731445 C9.18373413 4.36908569 9.18373413 4.36908569 10.29150391 5.00341797 C11.4537146 5.6590271 11.4537146 5.6590271 12.6394043 6.32788086 C21.32111627 11.24760283 29.93091193 16.29383165 38.53759766 21.34326172 C42.32985572 23.56622473 46.13254268 25.76833792 49.95166016 27.94482422 C50.8031665 28.43152588 51.65467285 28.91822754 52.53198242 29.41967773 C54.0990226 30.31381151 55.6683244 31.20400027 57.24047852 32.08911133 C62.28806551 34.9763196 66.8947483 38.24336923 71.47900391 41.81591797 C72.32462891 42.45529297 73.17025391 43.09466797 74.04150391 43.75341797 C75.47900391 45.81591797 75.47900391 45.81591797 75.66650391 49.00341797 C74.06678217 54.13936669 71.24008187 57.98535127 67.47900391 61.81591797 C66.81900391 61.81591797 66.15900391 61.81591797 65.47900391 61.81591797 C65.2240918 62.39462646 64.96917969 62.97333496 64.70654297 63.56958008 C62.38246001 67.82254096 58.64386652 70.98697835 55.22900391 74.37841797 C54.01760742 75.58461792 54.01760742 75.58461792 52.78173828 76.81518555 C46.06939677 83.40766382 39.07784492 89.28511597 31.47900391 94.81591797 C30.22990234 95.75757813 30.22990234 95.75757813 28.95556641 96.71826172 C4.45191148 114.66861359 -24.11007333 123.73632424 -53.52099609 129.81591797 C-54.87439087 130.10160645 -54.87439087 130.10160645 -56.25512695 130.39306641 C-60.64270529 130.96115235 -65.09679387 130.81591797 -69.52099609 130.81591797 C-69.52099609 100.45591797 -69.52099609 70.09591797 -69.52099609 38.81591797 C-63.82840461 36.68119616 -58.6082404 34.90829648 -52.77099609 33.50341797 C-52.02978516 33.30941406 -51.28857422 33.11541016 -50.52490234 32.91552734 C-47.63558529 32.21783768 -45.1864324 31.67528452 -42.24755859 32.29638672 C-39.64677042 34.58531568 -38.22785298 37.41394478 -36.64599609 40.44091797 C-35.86718403 41.87974026 -35.08575239 43.31714651 -34.30224609 44.75341797 C-33.86912109 45.55005859 -33.43599609 46.34669922 -32.98974609 47.16748047 C-29.55060437 53.36891155 -25.90468577 59.4543669 -22.30664062 65.56445312 C-19.55804634 70.2509716 -16.85043228 74.90566759 -14.52099609 79.81591797 C-13.41240234 79.26162109 -12.30380859 78.70732422 -11.16162109 78.13623047 C-5.61474609 75.36279297 -0.06787109 72.58935547 5.47900391 69.81591797 C4.90690627 66.39937923 4.07083539 63.64408726 2.46728516 60.57763672 C2.04535889 59.76866943 1.62343262 58.95970215 1.1887207 58.1262207 C0.72763916 57.2606958 0.26655762 56.3951709 -0.20849609 55.50341797 C-0.68311279 54.59857666 -1.15772949 53.69373535 -1.64672852 52.76147461 C-4.44047285 47.50052748 -7.36741538 42.34401223 -10.43505859 37.23779297 C-11.4063269 35.61611206 -11.4063269 35.61611206 -12.3972168 33.96166992 C-13.67508639 31.84434748 -14.96765314 29.73581712 -16.27563477 27.63696289 C-16.85804932 26.6737915 -17.44046387 25.71062012 -18.04052734 24.71826172 C-18.83100464 23.44196899 -18.83100464 23.44196899 -19.63745117 22.13989258 C-20.52099609 19.81591797 -20.52099609 19.81591797 -19.89599609 17.75488281 C-17.21663123 13.97655971 -13.95323095 10.79438235 -10.70849609 7.50341797 C-9.99628906 6.74996094 -9.28408203 5.99650391 -8.55029297 5.22021484 C-7.85355469 4.51316406 -7.15681641 3.80611328 -6.43896484 3.07763672 C-5.80756592 2.42754639 -5.17616699 1.77745605 -4.52563477 1.10766602 C-2.52099609 -0.18408203 -2.52099609 -0.18408203 0 0 Z " fill="#242539" transform="translate(337.52099609375,336.18408203125)"/>
<path d="M0 0 C3.0910839 1.03641708 4.5188629 2.34720605 6.7824707 4.67993164 C7.53334961 5.44370117 8.28422852 6.2074707 9.05786133 6.99438477 C9.82678711 7.79682617 10.59571289 8.59926758 11.38793945 9.42602539 C12.17620117 10.23233398 12.96446289 11.03864258 13.77661133 11.86938477 C15.71886861 13.85872708 17.65117606 15.8567981 19.57543945 17.86352539 C18.33183952 21.92822733 16.84413962 25.41847926 14.66918945 29.06665039 C14.09442871 30.03892578 13.51966797 31.01120117 12.92749023 32.01293945 C12.0107251 33.54772949 12.0107251 33.54772949 11.07543945 35.11352539 C9.81120119 37.25864169 8.54819165 39.40448259 7.28637695 41.55102539 C6.66085938 42.61321289 6.0353418 43.67540039 5.39086914 44.76977539 C2.79224018 49.19820817 0.22650198 53.64333029 -2.29956055 58.11352539 C-2.72172852 58.84474609 -3.14389648 59.5759668 -3.57885742 60.3293457 C-5.55729424 63.85459094 -6.42456055 65.73263687 -6.42456055 69.86352539 C2.98043945 74.81352539 2.98043945 74.81352539 12.57543945 79.86352539 C16.55516583 73.52265623 16.55516583 73.52265623 20.3371582 67.08618164 C20.8117749 66.25054687 21.2863916 65.41491211 21.77539062 64.55395508 C22.51172729 63.25312988 22.51172729 63.25312988 23.26293945 61.92602539 C27.22276014 54.96465444 31.2073436 48.01960443 35.26293945 41.11352539 C35.68470459 40.39302002 36.10646973 39.67251465 36.54101562 38.93017578 C39.4527811 33.98618374 39.4527811 33.98618374 40.57543945 32.86352539 C47.23958143 32.50276967 52.71456771 33.38960449 59.07543945 35.30102539 C59.8849707 35.53112305 60.69450195 35.7612207 61.52856445 35.99829102 C67.41347074 37.70155668 67.41347074 37.70155668 68.57543945 38.86352539 C68.67066364 41.72444357 68.70097271 44.5611616 68.68896484 47.42236328 C68.68911087 48.3198378 68.6892569 49.21731232 68.68940735 50.14198303 C68.68870787 53.12340673 68.68091387 56.10476879 68.6730957 59.08618164 C68.67123165 61.14741481 68.66980769 63.20864843 68.66880798 65.2698822 C68.66498183 70.70656549 68.65515071 76.14322225 68.644104 81.57989502 C68.63389198 87.12300253 68.62931081 92.66611432 68.62426758 98.20922852 C68.61352853 109.09400583 68.59645094 119.97876341 68.57543945 130.86352539 C66.06087737 130.72116668 63.54665935 130.57472664 61.0324707 130.42602539 C60.33061646 130.38670898 59.62876221 130.34739258 58.90563965 130.30688477 C20.3262697 127.99234512 -20.65478592 108.4323231 -47.8972168 81.3581543 C-49.89794366 79.40028187 -51.98844972 77.5615516 -54.11206055 75.73852539 C-59.30885374 71.24369555 -59.30885374 71.24369555 -61.42456055 68.86352539 C-61.42456055 68.20352539 -61.42456055 67.54352539 -61.42456055 66.86352539 C-62.08456055 66.86352539 -62.74456055 66.86352539 -63.42456055 66.86352539 C-63.42456055 66.20352539 -63.42456055 65.54352539 -63.42456055 64.86352539 C-64.08456055 64.86352539 -64.74456055 64.86352539 -65.42456055 64.86352539 C-65.42456055 64.20352539 -65.42456055 63.54352539 -65.42456055 62.86352539 C-66.08456055 62.86352539 -66.74456055 62.86352539 -67.42456055 62.86352539 C-69.2578637 60.84067231 -70.94025824 58.8254855 -72.61206055 56.67602539 C-73.08836914 56.09788086 -73.56467773 55.51973633 -74.05541992 54.92407227 C-76.00987268 52.42090194 -77.36360979 50.51599821 -77.6628418 47.31274414 C-73.76628052 39.60566552 -64.24196389 35.65214066 -57.04956055 31.61352539 C-55.87630576 30.94730451 -54.70354007 30.28022163 -53.53125 29.61230469 C-51.21431138 28.29243816 -48.89590448 26.97531013 -46.57641602 25.65991211 C-42.56360398 23.37282683 -38.58372788 21.03359147 -34.61206055 18.67602539 C-27.2182558 14.29957253 -19.76068776 10.03756603 -12.28857422 5.79638672 C-11.43884033 5.31322998 -10.58910645 4.83007324 -9.71362305 4.33227539 C-8.57981201 3.68935547 -8.57981201 3.68935547 -7.4230957 3.03344727 C-2.04457105 -0.11508561 -2.04457105 -0.11508561 0 0 Z " fill="#242539" transform="translate(174.424560546875,336.136474609375)"/>
<path d="M0 0 C13.59473651 10.25822343 20.85498098 23.90831946 23.71875 40.5625 C26.05303531 58.28361596 21.04911814 74.49943794 10.27734375 88.62109375 C0.2694108 100.59320045 -14.41106684 108.05339821 -29.8125 110.12109375 C-47.47856842 111.30400283 -63.7088244 107.44467701 -77.6484375 96.06640625 C-89.78185376 85.1594725 -97.86654861 70.24035401 -99.05078125 53.81640625 C-99.41143539 36.46704413 -94.92190091 21.04216359 -83.375 7.68359375 C-60.01493599 -16.61714397 -27.53389786 -18.39417343 0 0 Z M-62.95703125 28.5859375 C-68.50335809 36.16397144 -72.16924454 43.5776293 -70.8125 53.12109375 C-68.15015924 64.07155486 -62.50793216 71.92055821 -53.0234375 77.9296875 C-45.15800585 82.16812682 -37.01567133 83.02160586 -28.328125 80.97265625 C-18.2001702 77.54424919 -11.81285937 71.24483589 -7 61.93359375 C-3.65178951 55.05296701 -2.44717679 48.59958929 -4.71875 41.1484375 C-9.78919211 28.29356663 -15.59485844 22.76547628 -28.08984375 17.0859375 C-41.1305071 11.70447374 -54.21104271 18.53362644 -62.95703125 28.5859375 Z " fill="#242539" transform="translate(292.8125,224.87890625)"/>
<path d="M0 0 C50.39368421 0 50.39368421 0 60 9 C64.96347558 15.85883619 66.5675336 23.26447101 65.7421875 31.60546875 C64.38182137 39.78003247 61.32462127 45.47820096 54.8046875 50.7109375 C51.28076565 53.22802454 48.36725028 55 44 55 C46.31019483 59.02216116 48.62322436 63.04268594 50.9375 67.0625 C51.27814484 67.65458252 51.61878967 68.24666504 51.96975708 68.85668945 C56.40623741 76.56437081 60.86954741 84.25201985 65.56030273 91.80883789 C68 95.78908256 68 95.78908256 68 98 C63.05 98 58.1 98 53 98 C52.01 96.20175781 51.02 94.40351563 50 92.55078125 C49.01100598 90.75959277 48.02093205 88.96900522 47.03076172 87.1784668 C46.35678668 85.95838361 45.68388963 84.73770415 45.01220703 83.51635742 C44.68978027 82.93023682 44.36735352 82.34411621 44.03515625 81.74023438 C43.71168213 81.1521701 43.38820801 80.56410583 43.05493164 79.95822144 C42.0545049 78.16142179 41.02785259 76.38131809 40 74.60009766 C38.62344791 72.19449735 37.43031628 69.77518212 36.3125 67.23974609 C34.44461551 63.09535555 34.44461551 63.09535555 30 58 C24.39 57.67 18.78 57.34 13 57 C13 70.53 13 84.06 13 98 C8.71 98 4.42 98 0 98 C0 65.66 0 33.32 0 0 Z M13 10 C13 21.88 13 33.76 13 46 C18.4140625 46.0928125 18.4140625 46.0928125 23.9375 46.1875 C25.05632568 46.21481201 26.17515137 46.24212402 27.32788086 46.27026367 C35.0963335 46.33412526 41.8159972 45.64204488 47.9375 40.5625 C52.85965602 34.44709403 52.74507604 28.67046232 52 21 C49.91473762 16.04750186 47.03316889 14.07323745 42.390625 11.76171875 C35.78779348 9.65787537 28.85371412 9.8696117 22 9.9375 C17.545 9.9684375 17.545 9.9684375 13 10 Z " fill="#242539" transform="translate(1219,225)"/>
<path d="M0 0 C46.84520885 0 46.84520885 0 59.7734375 11.58984375 C69.42613434 22.00201673 72.7833518 37.18525226 72.28125 51.09765625 C70.93280818 65.01282669 68.07140171 78.37830877 57.3359375 88.25 C39.92961379 101.290189 22.12496613 98 0 98 C0 65.66 0 33.32 0 0 Z M13 11 C13 36.08 13 61.16 13 87 C33.75691707 87.62098719 33.75691707 87.62098719 49.76171875 77.67578125 C58.82519691 66.84073318 58.99234837 52.39947494 58 39 C56.55389585 30.48018159 53.49944888 22.88629333 47 17 C35.2345475 9.56165921 28.73186658 11 13 11 Z " fill="#242539" transform="translate(813,225)"/>
<path d="M0 0 C19.14 0 38.28 0 58 0 C58 3.3 58 6.6 58 10 C57 11 57 11 55.24729919 11.12025452 C54.48562943 11.11803391 53.72395966 11.11581329 52.93920898 11.11352539 C52.07839218 11.11344986 51.21757538 11.11337433 50.33067322 11.11329651 C49.39526199 11.10813522 48.45985077 11.10297394 47.49609375 11.09765625 C46.54307877 11.0962413 45.59006378 11.09482635 44.60816956 11.09336853 C41.55124835 11.08775152 38.49439923 11.07519616 35.4375 11.0625 C33.37044376 11.05748719 31.30338638 11.05292391 29.23632812 11.04882812 C24.15750167 11.03862558 19.07883194 11.01905356 14 11 C14 20.9 14 30.8 14 41 C26.21 41 38.42 41 51 41 C51 44.63 51 48.26 51 52 C38.79 52 26.58 52 14 52 C14 63.55 14 75.1 14 87 C28.85 87 43.7 87 59 87 C59 90.63 59 94.26 59 98 C39.53 98 20.06 98 0 98 C0 65.66 0 33.32 0 0 Z " fill="#242539" transform="translate(1140,225)"/>
<path d="M0 0 C1.39456452 0.00667256 2.78911118 0.01863093 4.18359375 0.03515625 C5.2499707 0.04192383 5.2499707 0.04192383 6.33789062 0.04882812 C8.09899388 0.06064761 9.86005411 0.07858362 11.62109375 0.09765625 C15.77616045 12.43228727 19.93117646 24.76693536 24.08612728 37.10160542 C26.01531956 42.82873172 27.94452946 48.55585207 29.8737793 54.28295898 C31.73469156 59.80720338 33.59555799 65.33146321 35.45639229 70.85573387 C36.16727622 72.96611268 36.87817682 75.07648586 37.58909416 77.18685341 C38.58279602 80.13667984 39.57643925 83.08652602 40.57006836 86.03637695 C41.01351089 87.35267845 41.01351089 87.35267845 41.46591187 88.6955719 C41.73653946 89.49904053 42.00716705 90.30250916 42.28599548 91.13032532 C42.52105269 91.82812261 42.75610991 92.5259199 42.99829006 93.24486256 C43.54174974 94.86161385 44.08172067 96.47953702 44.62109375 98.09765625 C40.00109375 98.09765625 35.38109375 98.09765625 30.62109375 98.09765625 C26.58791994 88.63521001 23.66372395 78.9170537 20.62109375 69.09765625 C3.29609375 68.60265625 3.29609375 68.60265625 -14.37890625 68.09765625 C-15.36890625 73.04765625 -15.36890625 73.04765625 -16.37890625 78.09765625 C-16.83371899 79.80688363 -17.3153991 81.50983285 -17.8515625 83.1953125 C-18.11130859 84.01580078 -18.37105469 84.83628906 -18.63867188 85.68164062 C-18.90357422 86.49955078 -19.16847656 87.31746094 -19.44140625 88.16015625 C-19.71017578 89.01287109 -19.97894531 89.86558594 -20.25585938 90.74414062 C-22.24229728 96.96104728 -22.24229728 96.96104728 -23.37890625 98.09765625 C-25.56530078 98.17024571 -27.75391014 98.18139408 -29.94140625 98.16015625 C-31.13894531 98.15113281 -32.33648438 98.14210938 -33.5703125 98.1328125 C-34.96056641 98.11541016 -34.96056641 98.11541016 -36.37890625 98.09765625 C-34.43003487 90.67223021 -32.23284668 83.37423172 -29.7890625 76.09765625 C-29.44806015 75.07465424 -29.1070578 74.05165222 -28.75572205 72.99765015 C-27.65419843 69.6965563 -26.54807615 66.39702807 -25.44140625 63.09765625 C-24.67896628 60.81854561 -23.91659701 58.53941132 -23.15429688 56.26025391 C-18.59826171 42.6522917 -14.0149665 29.05357062 -9.37890625 15.47265625 C-9.12601837 14.72918945 -8.87313049 13.98572266 -8.61257935 13.21972656 C-7.91286255 11.16491165 -7.20916038 9.11151363 -6.50390625 7.05859375 C-6.11460937 5.92212402 -5.7253125 4.7856543 -5.32421875 3.61474609 C-4.01020078 0.11590176 -4.01020078 0.11590176 0 0 Z M2.62109375 12.09765625 C2.40493408 12.83177734 2.18877441 13.56589844 1.96606445 14.32226562 C0.95658469 17.74779378 -0.05464062 21.17280254 -1.06640625 24.59765625 C-1.42927734 25.82677734 -1.79214844 27.05589844 -2.16601562 28.32226562 C-4.53810423 36.3317513 -6.98607867 44.30921344 -9.56640625 52.25390625 C-10.51626681 55.08549412 -10.51626681 55.08549412 -10.37890625 58.09765625 C-1.13890625 58.09765625 8.10109375 58.09765625 17.62109375 58.09765625 C15.07182481 47.86997937 15.07182481 47.86997937 12.2109375 37.7421875 C11.99796524 37.02906906 11.78499298 36.31595062 11.56556702 35.58122253 C11.12265199 34.10308139 10.67819216 32.62540225 10.23217773 31.14819336 C9.5488258 28.87770146 8.8769642 26.60398573 8.20507812 24.33007812 C7.77022811 22.88390486 7.33470701 21.43793317 6.8984375 19.9921875 C6.69943344 19.31315872 6.50042938 18.63412994 6.2953949 17.93452454 C5.79597308 16.30310458 5.2155379 14.69690276 4.62109375 13.09765625 C3.96109375 12.76765625 3.30109375 12.43765625 2.62109375 12.09765625 Z " fill="#242539" transform="translate(1008.37890625,224.90234375)"/>
<path d="M0 0 C18.81 0 37.62 0 57 0 C57 3.63 57 7.26 57 11 C42.48 11 27.96 11 13 11 C13 20.9 13 30.8 13 41 C25.21 41 37.42 41 50 41 C50 44.63 50 48.26 50 52 C37.79 52 25.58 52 13 52 C13 63.55 13 75.1 13 87 C28.18 87 43.36 87 59 87 C59 90.63 59 94.26 59 98 C39.53 98 20.06 98 0 98 C0 65.66 0 33.32 0 0 Z " fill="#242539" transform="translate(656,225)"/>
<path d="M0 0 C18.81 0 37.62 0 57 0 C57 3.63 57 7.26 57 11 C42.48 11 27.96 11 13 11 C13 20.9 13 30.8 13 41 C25.21 41 37.42 41 50 41 C50 44.63 50 48.26 50 52 C37.79 52 25.58 52 13 52 C13 63.55 13 75.1 13 87 C27.85 87 42.7 87 58 87 C58 90.63 58 94.26 58 98 C38.86 98 19.72 98 0 98 C0 65.66 0 33.32 0 0 Z " fill="#242539" transform="translate(735,225)"/>
<path d="M0 0 C1.2684375 0.9590625 1.2684375 0.9590625 2.5625 1.9375 C3.34625 2.515 4.13 3.0925 4.9375 3.6875 C5.47375 4.1 6.01 4.5125 6.5625 4.9375 C6.05727778 9.31609255 3.38422778 11.75401224 0.5625 14.9375 C-0.10136719 14.52757812 -0.76523437 14.11765625 -1.44921875 13.6953125 C-2.77373047 12.88707031 -2.77373047 12.88707031 -4.125 12.0625 C-4.99511719 11.52882812 -5.86523438 10.99515625 -6.76171875 10.4453125 C-13.91687491 6.41335589 -20.30902316 6.18605118 -28.4375 6.9375 C-32.20169013 8.02580534 -35.43790671 9.36388284 -37.62109375 12.80078125 C-38.5102599 15.12792902 -38.73707701 16.88947784 -38.75 19.375 C-38.76675781 20.11621094 -38.78351562 20.85742188 -38.80078125 21.62109375 C-38.30755093 24.76609999 -37.41305209 26.42207031 -35.4375 28.9375 C-33.03169313 30.42112939 -30.79516848 31.63460841 -28.25 32.8125 C-27.54601074 33.15418213 -26.84202148 33.49586426 -26.11669922 33.84790039 C-22.51292272 35.57616052 -18.8793513 37.18921696 -15.17578125 38.69140625 C-4.81843148 42.90163176 4.62881214 47.38969234 9.25 58.3125 C11.525764 66.08260852 10.74431384 72.91129022 7.4375 80.25 C2.84700642 88.50242578 -3.57575391 92.15929986 -12.4375 94.9375 C-24.22188724 97.76650234 -36.90813541 95.86511912 -47.546875 90.12109375 C-51.01301927 87.95117286 -54.2432402 85.48611155 -57.4375 82.9375 C-56.84466379 79.54557637 -55.67006811 77.7267243 -53.375 75.1875 C-52.82714844 74.57390625 -52.27929688 73.9603125 -51.71484375 73.328125 C-51.29332031 72.86921875 -50.87179687 72.4103125 -50.4375 71.9375 C-49.98761719 72.31261719 -49.53773438 72.68773437 -49.07421875 73.07421875 C-38.78126487 81.2632021 -29.69861488 84.33821478 -16.4375 82.9375 C-11.7750796 81.86214768 -8.51925352 79.61189842 -5.4375 75.9375 C-4.23716751 73.53683502 -4.20212508 71.8665818 -4.125 69.1875 C-4.08761719 68.34703125 -4.05023437 67.5065625 -4.01171875 66.640625 C-4.60835989 62.85277484 -5.98603053 60.87768686 -8.4375 57.9375 C-10.86125359 56.42516977 -13.05048435 55.2279289 -15.625 54.0625 C-16.31972412 53.73008301 -17.01444824 53.39766602 -17.73022461 53.05517578 C-21.47218406 51.27392778 -25.24837398 49.56901997 -29.0234375 47.859375 C-29.77214111 47.51632324 -30.52084473 47.17327148 -31.29223633 46.81982422 C-32.71896496 46.16885857 -34.15085208 45.52903129 -35.58862305 44.90283203 C-42.65372786 41.70039662 -48.53029923 37.38419958 -51.71484375 30.1328125 C-54.24777035 22.43819224 -53.90883901 15.2765593 -50.4375 7.9375 C-45.91577891 0.78541483 -39.52001447 -3.06907089 -31.578125 -5.671875 C-20.46775341 -7.69931507 -9.53458826 -6.14293124 0 0 Z " fill="#242539" transform="translate(627.4375,229.0625)"/>
<path d="M0 0 C2.90073599 2.0929361 4.49247038 3.48870557 6.5 6.5 C4.19 9.14 1.88 11.78 -0.5 14.5 C-2.6484375 13.00260417 -4.796875 11.50520833 -6.9453125 10.0078125 C-14.08655013 5.79295359 -21.41394798 5.75402026 -29.5 6.5 C-33.61259346 7.63556685 -36.6081504 9.1250652 -39 12.8125 C-39.82310881 17.23670983 -40.15154666 20.89029649 -38.4375 25.125 C-32.50332469 32.39915038 -23.54831311 35.22368664 -15.125 38.66210938 C1.44697504 45.60353692 1.44697504 45.60353692 6 53.1875 C6.69609375 54.30705078 6.69609375 54.30705078 7.40625 55.44921875 C10.73733759 61.69500798 10.61852882 69.59333348 8.69921875 76.296875 C5.29715057 83.82585062 0.01679767 89.42882594 -7.515625 92.8828125 C-19.14624655 96.90015279 -30.94305324 96.73702015 -42.5 92.5 C-48.42918885 89.58153081 -53.58719219 85.89567014 -58.5 81.5 C-56.83248852 77.55860922 -54.27289351 74.7107188 -51.5 71.5 C-50.675 72.056875 -49.85 72.61375 -49 73.1875 C-47.83441823 73.95997283 -46.66764098 74.73064334 -45.5 75.5 C-44.8503125 75.93183594 -44.200625 76.36367188 -43.53125 76.80859375 C-42.8609375 77.24300781 -42.190625 77.67742187 -41.5 78.125 C-40.88125 78.52976562 -40.2625 78.93453125 -39.625 79.3515625 C-31.95305696 83.49779642 -22.21654957 84.13570887 -13.8515625 81.7421875 C-10.2220062 80.02860516 -7.18814916 78.174207 -5.5 74.5 C-4.36499021 69.82590456 -4.0568708 66.55965678 -5.9375 62.0625 C-6.453125 61.216875 -6.96875 60.37125 -7.5 59.5 C-7.5 58.84 -7.5 58.18 -7.5 57.5 C-8.16128906 57.24605469 -8.82257812 56.99210937 -9.50390625 56.73046875 C-15.53871378 54.25202759 -21.39465775 51.36522929 -27.27978516 48.55371094 C-29.34024274 47.57582058 -31.4088862 46.61808765 -33.48046875 45.6640625 C-41.67392694 41.82674268 -47.62592529 38.13560437 -52.4375 30.375 C-54.78812415 23.86670938 -54.79439225 15.44217984 -51.9375 9.125 C-47.03712438 1.00339844 -40.56583761 -3.26868286 -31.64453125 -6.0859375 C-20.21873522 -8.29201105 -9.54993174 -6.45302531 0 0 Z " fill="#242539" transform="translate(956.5,229.5)"/>
<path d="M0 0 C4.62 0 9.24 0 14 0 C16.91030072 7.33937124 19.11596978 14.86062973 21.34375 22.4296875 C21.7580024 23.82926941 22.17251732 25.22877365 22.58728027 26.62820435 C23.67366438 30.29618815 24.75662399 33.96517403 25.83880615 37.63439941 C26.93352427 41.3440922 28.03128962 45.05288275 29.12890625 48.76171875 C30.36701483 52.94565639 31.60485522 57.12967091 32.84020996 61.31442261 C34.87755157 68.21445804 36.92404421 75.11147543 39 82 C42.16411329 74.10262626 44.45959049 65.9475366 46.8515625 57.79296875 C47.31543308 56.21967199 47.77957947 54.64645652 48.24398804 53.07331848 C49.45938222 48.95384357 50.67135911 44.83337144 51.88250732 40.71264648 C53.35800678 35.69461414 54.83718324 30.67766475 56.31621361 25.66067219 C57.46592638 21.76070902 58.61496017 17.86055067 59.76187134 13.95976257 C59.97239639 13.24442856 60.18292145 12.52909454 60.39982605 11.79208374 C60.96777293 9.86227315 61.53524943 7.93232415 62.10269165 6.00236511 C62.70356215 3.99187159 63.33643919 1.99068244 64 0 C68.62 0 73.24 0 78 0 C71.08460742 22.6580804 64.05332823 45.27862413 56.92501068 67.87056351 C56.31127678 69.81637815 55.69819343 71.76239673 55.08526611 73.70846558 C53.93016204 77.37535777 52.77197259 81.04127089 51.61328125 84.70703125 C51.26275192 85.81988495 50.9122226 86.93273865 50.55107117 88.07931519 C50.2291127 89.09575104 49.90715424 90.11218689 49.57543945 91.15942383 C49.29408646 92.04994949 49.01273346 92.94047516 48.72285461 93.85798645 C48 96 48 96 47 98 C41.72 98 36.44 98 31 98 C11.03343793 36.27530252 11.03343793 36.27530252 4.25 14.6875 C3.90852432 13.60304092 3.90852432 13.60304092 3.56015015 12.49667358 C0 1.18000794 0 1.18000794 0 0 Z " fill="#242539" transform="translate(1050,225)"/>
</svg>
